999
dxflib 2.0.4.8
  0
SECTION
  2
HEADER
  9
$ACADVER
  1
AC1015
  9
$HANDSEED
  5
FFFF
  9
$USERR4
 40
0.0
  9
$DIMTDEC
 70
3
  9
$DIMTAD
 70
0
  9
$CMLSTYLE
  2
Standard
  9
$VISRETAIN
 70
1
  9
$TILEMODE
 70
1
  9
$SHADEDIF
 70
70
  9
$USERR5
 40
0.0
  9
$UCSYDIR
 10
0.0
 20
1.0
 30
0.0
  9
$CHAMFERA
 40
0.5
  9
$MENU
  1
.
  9
$DIMALTZ
 70
0
  9
$CLAYER
  8
0
  9
$OLESTARTUP
290
0
  9
$UCSXDIR
 10
1.0
 20
0.0
 30
0.0
  9
$CHAMFERB
 40
0.5
  9
$DIMADEC
 70
0
  9
$DIMUPT
 70
0
  9
$DIMASZ
 40
0.18
  9
$TRACEWID
 40
0.05
  9
$REGENMODE
 70
1
  9
$ORTHOMODE
 70
0
  9
$EXTMIN
 10
-0.0027215983546655
 20
-0.0008055272616785
 30
0.0
  9
$ENDCAPS
280
0
  9
$MEASUREMENT
 70
0
  9
$CMLJUST
 70
0
  9
$PUCSYDIR
 10
0.0
 20
1.0
 30
0.0
  9
$ANGBASE
 50
0.0
  9
$USRTIMER
 70
1
  9
$CHAMFERC
 40
1.0
  9
$SKETCHINC
 40
0.1
  9
$DIMGAP
 40
0.09
  9
$DIMTFAC
 40
1.0
  9
$DIMSAH
 70
0
  9
$DIMALT
 70
0
  9
$DIMSHO
 70
1
  9
$VERSIONGUID
  2
{FAEB1C32-E019-11D5-929B-00C0DF256EC4}
  9
$LWDISPLAY
290
0
  9
$PUCSXDIR
 10
1.0
 20
0.0
 30
0.0
  9
$SURFTYPE
 70
6
  9
$SPLFRAME
 70
0
  9
$CHAMFERD
 40
0.0
  9
$DIMALTRND
 40
0.0
  9
$DIMALTTD
 70
2
  9
$DIMTSZ
 40
0.0
  9
$LIMMIN
 10
0.0
 20
0.0
  9
$CELWEIGHT
370
-1
  9
$SURFTAB1
 70
6
  9
$SPLINESEGS
 70
8
  9
$AUPREC
 70
0
  9
$LUNITS
 70
2
  9
$DWGCODEPAGE
  3
ANSI_1252
  9
$PSTYLEMODE
290
1
  9
$UNITMODE
 70
0
  9
$USERI1
 70
0
  9
$UCSORTHOVIEW
 70
0
  9
$SURFTAB2
 70
6
  9
$TDUUPDATE
 40
2456511.3208217588253319
  9
$TDUCREATE
 40
2456511.2902280441485345
  9
$SKPOLY
 70
0
  9
$ELEVATION
 40
0.0
  9
$DIMDSEP
 70
46
  9
$DIMCEN
 40
0.09
  9
$DIMRND
 40
0.0
  9
$INSBASE
 10
0.0
 20
0.0
 30
0.0
  9
$INSUNITS
 70
0
  9
$USERI2
 70
0
  9
$UCSORGRIGHT
 10
0.0
 20
0.0
 30
0.0
  9
$UCSORG
 10
0.0
 20
0.0
 30
0.0
  9
$PELEVATION
 40
0.0
  9
$DIMEXO
 40
0.0625
  9
$TEXTSIZE
 40
0.2
  9
$FILLMODE
 70
1
  9
$EXTMAX
 10
2.9996624522747291
 20
3.1521711793229859
 30
0.0
  9
$JOINSTYLE
280
0
  9
$USERI3
 70
0
  9
$PUCSORGBOTTOM
 10
0.0
 20
0.0
 30
0.0
  9
$SURFU
 70
6
  9
$ANGDIR
 70
0
  9
$TDUSRTIMER
 40
2456511.2922106478363276
  9
$DIMLWD
 70
-2
  9
$DIMTZIN
 70
0
  9
$DIMTOLJ
 70
1
  9
$DIMZIN
 70
0
  9
$DIMDLE
 40
0.0
  9
$DIMSCALE
 40
1.0
  9
$WORLDVIEW
 70
1
  9
$USERI4
 70
0
  9
$SURFV
 70
6
  9
$DIMLWE
 70
-2
  9
$DIMLUNIT
 70
2
  9
$DIMATFIT
 70
3
  9
$DIMALTTZ
 70
0
  9
$DIMJUST
 70
0
  9
$QTEXTMODE
 70
0
  9
$LIMMAX
 10
12.0
 20
9.0
  9
$ACADMAINTVER
 70
6
  9
$EXTNAMES
290
1
  9
$PROXYGRAPHICS
 70
1
  9
$USERI5
 70
0
  9
$UCSORGTOP
 10
0.0
 20
0.0
 30
0.0
  9
$PDMODE
 70
0
  9
$LIMCHECK
 70
0
  9
$THICKNESS
 40
0.0
  9
$DIMAZIN
 70
0
  9
$DIMSE1
 70
0
  9
$DIMLIM
 70
0
  9
$DIMTXT
 40
0.18
  9
$ATTMODE
 70
1
  9
$XEDIT
290
1
  9
$PEXTMAX
 10
-100000000000000000000.0
 20
-100000000000000000000.0
 30
-100000000000000000000.0
  9
$PEXTMIN
 10
100000000000000000000.0
 20
100000000000000000000.0
 30
100000000000000000000.0
  9
$PUCSORG
 10
0.0
 20
0.0
 30
0.0
  9
$SPLINETYPE
 70
6
  9
$TDINDWG
 40
0.0000000116
  9
$LUPREC
 70
3
  9
$DIMSOXD
 70
0
  9
$DIMLFAC
 40
1.0
  9
$DIMSE2
 70
0
  9
$DIMTOH
 70
1
  9
$CELTYPE
  6
ByLayer
  9
$PSVPSCALE
 40
0.0
  9
$FINGERPRINTGUID
  2
{9C8202BC-C409-450F-DBFC-3B17E8FD4E16}
  9
$PLIMCHECK
 70
0
  9
$PUCSORGRIGHT
 10
0.0
 20
0.0
 30
0.0
  9
$PLINEWID
 40
0.0
  9
$DIMFRAC
 70
0
  9
$DIMSTYLE
  2
Standard
  9
$DIMTVP
 40
0.0
  9
$DIMASO
 70
1
  9
$DIMTM
 40
0.0
  9
$DIMDLI
 40
0.38
  9
$DISPSILH
 70
0
  9
$CECOLOR
 62
256
  9
$TREEDEPTH
 70
3020
  9
$PLIMMAX
 10
0.0
 20
0.0
  9
$PLIMMIN
 10
0.0
 20
0.0
  9
$MAXACTVP
 70
64
  9
$UCSORGBACK
 10
0.0
 20
0.0
 30
0.0
  9
$UCSORGLEFT
 10
0.0
 20
0.0
 30
0.0
  9
$TDUPDATE
 40
2456511.3208217588253319
  9
$FILLETRAD
 40
0.015
  9
$DIMALTU
 70
2
  9
$DIMDEC
 70
3
  9
$DIMCLRT
 70
0
  9
$DIMALTD
 70
2
  9
$DIMTIH
 70
1
  9
$LTSCALE
 40
1.0
  9
$CEPSNTYPE
380
0
  9
$CMLSCALE
 40
1.0
  9
$PINSBASE
 10
0.0
 20
0.0
 30
0.0
  9
$USERR1
 40
0.0
  9
$PUCSORTHOVIEW
 70
0
  9
$PDSIZE
 40
0.0
  9
$DIMTXSTY
  7
Standard
  9
$DIMCLRD
 70
0
  9
$DIMEXE
 40
0.18
  9
$CELTSCALE
 40
1.0
  9
$PSLTSCALE
 70
1
  9
$PLINEGEN
 70
0
  9
$SHADEDGE
 70
3
  9
$USERR2
 40
0.0
  9
$PUCSORGTOP
 10
0.0
 20
0.0
 30
0.0
  9
$UCSORGFRONT
 10
0.0
 20
0.0
 30
0.0
  9
$TDCREATE
 40
2456511.2902280441485345
  9
$DIMTMOVE
 70
2
  9
$DIMAUNIT
 70
0
  9
$DIMSD1
 70
0
  9
$DIMCLRE
 70
0
  9
$DIMTOFL
 70
0
  9
$DIMALTF
 40
25.3999999999999986
  9
$DIMTOL
 70
0
  9
$DIMTP
 40
0.0
  9
$TEXTSTYLE
  7
Standard
  9
$USERR3
 40
0.0
  9
$PUCSORGBACK
 10
0.0
 20
0.0
 30
0.0
  9
$PUCSORGFRONT
 10
0.0
 20
0.0
 30
0.0
  9
$PUCSORGLEFT
 10
0.0
 20
0.0
 30
0.0
  9
$UCSORGBOTTOM
 10
0.0
 20
0.0
 30
0.0
  9
$AUNITS
 70
0
  9
$DIMSD2
 70
0
  9
$DIMTIX
 70
0
  9
$MIRRTEXT
 70
1
  0
ENDSEC
  0
SECTION
  2
TABLES
  0
TABLE
  2
VPORT
  5
8
100
AcDbSymbolTable
 70
1
  0
VPORT
  5
30
100
AcDbSymbolTableRecord
100
AcDbViewportTableRecord
  2
*Active
 70
0
 10
0.0
 20
0.0
 11
1.0
 21
1.0
 12
286.3055555555554861
 22
148.5
 13
0.0
 23
0.0
 14
10.0
 24
10.0
 15
10.0
 25
10.0
 16
0.0
 26
0.0
 36
1.0
 17
0.0
 27
0.0
 37
0.0
 40
297.0
 41
1.92798353909465
 42
50.0
 43
0.0
 44
0.0
 50
0.0
 51
0.0
 71
0
 72
100
 73
1
 74
3
 75
1
 76
1
 77
0
 78
0
281
0
 65
1
110
0.0
120
0.0
130
0.0
111
1.0
121
0.0
131
0.0
112
0.0
122
1.0
132
0.0
 79
0
146
0.0
  0
ENDTAB
  0
TABLE
  2
LTYPE
  5
5
100
AcDbSymbolTable
 70
21
  0
LTYPE
  5
14
100
AcDbSymbolTableRecord
100
AcDbLinetypeTableRecord
  2
ByBlock
 70
0
  3

 72
65
 73
0
 40
0.0
  0
LTYPE
  5
15
100
AcDbSymbolTableRecord
100
AcDbLinetypeTableRecord
  2
ByLayer
 70
0
  3

 72
65
 73
0
 40
0.0
  0
LTYPE
  5
16
100
AcDbSymbolTableRecord
100
AcDbLinetypeTableRecord
  2
CONTINUOUS
 70
0
  3
Solid line
 72
65
 73
0
 40
0.0
  0
LTYPE
  5
31
100
AcDbSymbolTableRecord
100
AcDbLinetypeTableRecord
  2
DOT
 70
0
  3
Dot . . . . . . . . . . . . . . . . . . . . . .
 72
65
 73
2
 40
6.3499999999999996
 49
0.0
 74
0
 49
-6.3499999999999996
 74
0
  0
LTYPE
  5
32
100
AcDbSymbolTableRecord
100
AcDbLinetypeTableRecord
  2
DOT2
 70
0
  3
Dot (.5x) .....................................
 72
65
 73
2
 40
3.1749999999999998
 49
0.0
 74
0
 49
-3.1749999999999998
 74
0
  0
LTYPE
  5
33
100
AcDbSymbolTableRecord
100
AcDbLinetypeTableRecord
  2
DOTX2
 70
0
  3
Dot (2x) .  .  .  .  .  .  .  .  .  .  .  .  .
 72
65
 73
2
 40
12.6999999999999993
 49
0.0
 74
0
 49
-12.6999999999999993
 74
0
  0
LTYPE
  5
34
100
AcDbSymbolTableRecord
100
AcDbLinetypeTableRecord
  2
DASHED
 70
0
  3
Dashed __ __ __ __ __ __ __ __ __ __ __ __ __ _
 72
65
 73
2
 40
19.0500000000000007
 49
12.6999999999999993
 74
0
 49
-6.3499999999999996
 74
0
  0
LTYPE
  5
35
100
AcDbSymbolTableRecord
100
AcDbLinetypeTableRecord
  2
DASHED2
 70
0
  3
Dashed (.5x) _ _ _ _ _ _ _ _ _ _ _ _ _ _ _ _ _
 72
65
 73
2
 40
9.5250000000000004
 49
6.3499999999999996
 74
0
 49
-3.1749999999999998
 74
0
  0
LTYPE
  5
36
100
AcDbSymbolTableRecord
100
AcDbLinetypeTableRecord
  2
DASHEDX2
 70
0
  3
Dashed (2x) ____  ____  ____  ____  ____  ___
 72
65
 73
2
 40
38.1000000000000014
 49
25.3999999999999986
 74
0
 49
-12.6999999999999993
 74
0
  0
LTYPE
  5
37
100
AcDbSymbolTableRecord
100
AcDbLinetypeTableRecord
  2
DASHDOT
 70
0
  3
Dash dot __ . __ . __ . __ . __ . __ . __ . __
 72
65
 73
4
 40
25.3999999999999986
 49
12.6999999999999993
 74
0
 49
-6.3499999999999996
 74
0
 49
0.0
 74
0
 49
-6.3499999999999996
 74
0
  0
LTYPE
  5
38
100
AcDbSymbolTableRecord
100
AcDbLinetypeTableRecord
  2
DASHDOT2
 70
0
  3
Dash dot (.5x) _._._._._._._._._._._._._._._.
 72
65
 73
4
 40
12.6999999999999993
 49
6.3499999999999996
 74
0
 49
-3.1749999999999998
 74
0
 49
0.0
 74
0
 49
-3.1749999999999998
 74
0
  0
LTYPE
  5
39
100
AcDbSymbolTableRecord
100
AcDbLinetypeTableRecord
  2
DASHDOTX2
 70
0
  3
Dash dot (2x) ____  .  ____  .  ____  .  ___
 72
65
 73
4
 40
50.7999999999999972
 49
25.3999999999999986
 74
0
 49
-12.6999999999999993
 74
0
 49
0.0
 74
0
 49
-12.6999999999999993
 74
0
  0
LTYPE
  5
3A
100
AcDbSymbolTableRecord
100
AcDbLinetypeTableRecord
  2
DIVIDE
 70
0
  3
Divide ____ . . ____ . . ____ . . ____ . . ____
 72
65
 73
6
 40
31.75
 49
12.6999999999999993
 74
0
 49
-6.3499999999999996
 74
0
 49
0.0
 74
0
 49
-6.3499999999999996
 74
0
 49
0.0
 74
0
 49
-6.3499999999999996
 74
0
  0
LTYPE
  5
3B
100
AcDbSymbolTableRecord
100
AcDbLinetypeTableRecord
  2
DIVIDE2
 70
0
  3
Divide (.5x) __..__..__..__..__..__..__..__.._
 72
65
 73
6
 40
15.875
 49
6.3499999999999996
 74
0
 49
-3.1749999999999998
 74
0
 49
0.0
 74
0
 49
-3.1749999999999998
 74
0
 49
0.0
 74
0
 49
-3.1749999999999998
 74
0
  0
LTYPE
  5
3C
100
AcDbSymbolTableRecord
100
AcDbLinetypeTableRecord
  2
DIVIDEX2
 70
0
  3
Divide (2x) ________  .  .  ________  .  .  _
 72
65
 73
6
 40
63.5
 49
25.3999999999999986
 74
0
 49
-12.6999999999999993
 74
0
 49
0.0
 74
0
 49
-12.6999999999999993
 74
0
 49
0.0
 74
0
 49
-12.6999999999999993
 74
0
  0
LTYPE
  5
3D
100
AcDbSymbolTableRecord
100
AcDbLinetypeTableRecord
  2
CENTER
 70
0
  3
Center ____ _ ____ _ ____ _ ____ _ ____ _ ____
 72
65
 73
4
 40
50.7999999999999972
 49
31.75
 74
0
 49
-6.3499999999999996
 74
0
 49
6.3499999999999996
 74
0
 49
-6.3499999999999996
 74
0
  0
LTYPE
  5
3E
100
AcDbSymbolTableRecord
100
AcDbLinetypeTableRecord
  2
CENTER2
 70
0
  3
Center (.5x) ___ _ ___ _ ___ _ ___ _ ___ _ ___
 72
65
 73
4
 40
28.5749999999999993
 49
19.0500000000000007
 74
0
 49
-3.1749999999999998
 74
0
 49
3.1749999999999998
 74
0
 49
-3.1749999999999998
 74
0
  0
LTYPE
  5
3F
100
AcDbSymbolTableRecord
100
AcDbLinetypeTableRecord
  2
CENTERX2
 70
0
  3
Center (2x) ________  __  ________  __  _____
 72
65
 73
4
 40
101.5999999999999943
 49
63.5
 74
0
 49
-12.6999999999999993
 74
0
 49
12.6999999999999993
 74
0
 49
-12.6999999999999993
 74
0
  0
LTYPE
  5
40
100
AcDbSymbolTableRecord
100
AcDbLinetypeTableRecord
  2
BORDER
 70
0
  3
Border __ __ . __ __ . __ __ . __ __ . __ __ .
 72
65
 73
6
 40
44.4500000000000028
 49
12.6999999999999993
 74
0
 49
-6.3499999999999996
 74
0
 49
12.6999999999999993
 74
0
 49
-6.3499999999999996
 74
0
 49
0.0
 74
0
 49
-6.3499999999999996
 74
0
  0
LTYPE
  5
41
100
AcDbSymbolTableRecord
100
AcDbLinetypeTableRecord
  2
BORDER2
 70
0
  3
Border (.5x) __.__.__.__.__.__.__.__.__.__.__.
 72
65
 73
6
 40
22.2250000000000014
 49
6.3499999999999996
 74
0
 49
-3.1749999999999998
 74
0
 49
6.3499999999999996
 74
0
 49
-3.1749999999999998
 74
0
 49
0.0
 74
0
 49
-3.1749999999999998
 74
0
  0
LTYPE
  5
42
100
AcDbSymbolTableRecord
100
AcDbLinetypeTableRecord
  2
BORDERX2
 70
0
  3
Border (2x) ____  ____  .  ____  ____  .  ___
 72
65
 73
6
 40
88.9000000000000057
 49
25.3999999999999986
 74
0
 49
-12.6999999999999993
 74
0
 49
25.3999999999999986
 74
0
 49
-12.6999999999999993
 74
0
 49
0.0
 74
0
 49
-12.6999999999999993
 74
0
  0
ENDTAB
  0
TABLE
  2
LAYER
  5
2
100
AcDbSymbolTable
 70
5
  0
LAYER
  5
10
100
AcDbSymbolTableRecord
100
AcDbLayerTableRecord
  2
0
 70
0
 62
7
  6
CONTINUOUS
370
-3
390
F
  0
LAYER
  5
43
100
AcDbSymbolTableRecord
100
AcDbLayerTableRecord
  2
ALTE_DIN_1451_MITTELSCHRIFT_BY_PETER_WIEGEL
 70
0
 62
7
  6
CONTINUOUS
370
-3
390
F
  0
LAYER
  5
44
100
AcDbSymbolTableRecord
100
AcDbLayerTableRecord
  2
GEAR
 70
0
 62
7
  6
CONTINUOUS
370
-3
390
F
  0
LAYER
  5
45
100
AcDbSymbolTableRecord
100
AcDbLayerTableRecord
  2
COLOR
 70
0
 62
134
  6
CONTINUOUS
370
-3
390
F
  0
LAYER
  5
46
100
AcDbSymbolTableRecord
100
AcDbLayerTableRecord
  2
WORKING_ONE
 70
0
 62
7
  6
ByLayer
390
F
  0
ENDTAB
  0
TABLE
  2
STYLE
  5
3
100
AcDbSymbolTable
 70
1
  0
STYLE
  5
11
100
AcDbSymbolTableRecord
100
AcDbTextStyleTableRecord
  2
Standard
 70
0
 40
0.0
 41
0.75
 50
0.0
 71
0
 42
2.5
  3
txt
  4

  0
ENDTAB
  0
TABLE
  2
VIEW
  5
6
100
AcDbSymbolTable
 70
0
  0
ENDTAB
  0
TABLE
  2
UCS
  5
7
100
AcDbSymbolTable
 70
0
  0
ENDTAB
  0
TABLE
  2
APPID
  5
9
100
AcDbSymbolTable
 70
1
  0
APPID
  5
12
100
AcDbSymbolTableRecord
100
AcDbRegAppTableRecord
  2
ACAD
 70
0
  0
ENDTAB
  0
TABLE
  2
DIMSTYLE
  5
A
100
AcDbSymbolTable
 70
1
100
AcDbDimStyleTable
 71
0
  0
DIMSTYLE
105
27
100
AcDbSymbolTableRecord
100
AcDbDimStyleTableRecord
  2
Standard
 41
0.18
 42
0.0625
 43
3.75
 44
0.18
 70
0
 73
0
 74
0
 77
1
 78
8
140
0.18
141
2.5
143
0.03937007874016
147
0.09
171
3
172
1
271
2
272
2
274
3
278
44
283
0
284
8
340
11
  0
ENDTAB
  0
TABLE
  2
BLOCK_RECORD
  5
1
100
AcDbSymbolTable
 70
1
  0
BLOCK_RECORD
  5
1F
100
AcDbSymbolTableRecord
100
AcDbBlockTableRecord
  2
*Model_Space
340
22
  0
BLOCK_RECORD
  5
1B
100
AcDbSymbolTableRecord
100
AcDbBlockTableRecord
  2
*Paper_Space
340
1E
  0
BLOCK_RECORD
  5
23
100
AcDbSymbolTableRecord
100
AcDbBlockTableRecord
  2
*Paper_Space0
340
26
  0
ENDTAB
  0
ENDSEC
  0
SECTION
  2
BLOCKS
  0
BLOCK
  5
20
100
AcDbEntity
  8
0
100
AcDbBlockBegin
  2
*Model_Space
 70
0
 10
0.0
 20
0.0
 30
0.0
  3
*Model_Space
  1

  0
ENDBLK
  5
21
100
AcDbEntity
  8
0
100
AcDbBlockEnd
  0
BLOCK
  5
1C
100
AcDbEntity
 67
1
  8
0
100
AcDbBlockBegin
  2
*Paper_Space
 70
0
 10
0.0
 20
0.0
 30
0.0
  3
*Paper_Space
  1

  0
ENDBLK
  5
1D
100
AcDbEntity
 67
1
  8
0
100
AcDbBlockEnd
  0
BLOCK
  5
24
100
AcDbEntity
  8
0
100
AcDbBlockBegin
  2
*Paper_Space0
 70
0
 10
0.0
 20
0.0
 30
0.0
  3
*Paper_Space0
  1

  0
ENDBLK
  5
25
100
AcDbEntity
  8
0
100
AcDbBlockEnd
  0
ENDSEC
  0
SECTION
  2
ENTITIES
  0
HATCH
  5
47
  8
COLOR
 62
256
370
-1
  6
ByLayer
100
AcDbEntity
100
AcDbHatch
 10
0.0
 20
0.0
 30
0.0
210
0.0
220
0.0
230
1.0
  2
SOLID
 70
1
 71
0
 91
26
 92
1
 93
17
 72
1
 10
2.191249491308823
 20
0.0039284209181361
 11
2.191249491308823
 21
0.3142169766339404
 72
1
 10
2.191249491308823
 20
0.3142169766339404
 11
2.2536526831210879
 21
0.3142169766339404
 72
1
 10
2.2536526831210879
 20
0.3142169766339404
 11
2.2536526831210879
 21
0.281079109850479
 72
1
 10
2.2536526831210879
 20
0.281079109850479
 11
2.2548003069222551
 21
0.281079109850479
 72
2
 10
2.3284447140759701
 20
0.2238573908267132
 40
0.0932621243220256
 50
217.8472138817874111
 51
245.3519314101530426
 73
0
 72
2
 10
2.33359119640191
 20
0.2077937828648142
 40
0.1100270029461081
 50
246.4047525988087557
 51
271.0281490921037744
 73
0
 72
2
 10
2.3355902426558131
 20
0.2225214646296708
 40
0.0952816100760456
 50
269.9851091802235032
 51
290.4222257057463139
 73
0
 72
2
 10
2.327079998029296
 20
0.2017469889455412
 40
0.1177221099268757
 50
290.7757663026558816
 51
308.5235734205331823
 73
0
 72
1
 10
2.400401633823932
 20
0.293847113212744
 11
2.3553596948757241
 21
0.2400520180082744
 72
2
 10
2.3057341984308568
 20
0.1756410185357771
 40
0.08131092639028
 50
52.3875227198434814
 51
69.0250922198881511
 73
1
 72
2
 10
2.3138492803146522
 20
0.1960806939139055
 40
0.0593213456166965
 50
69.2769757571790308
 51
89.8107330410763609
 73
1
 72
2
 10
2.3140187543509412
 20
0.1914574691164005
 40
0.0639442522415958
 50
89.9762699032563376
 51
130.6386730184287046
 73
1
 72
2
 10
2.3024764076897859
 20
0.2039854528788081
 40
0.0469240719527239
 50
129.9067749785272952
 51
160.2023198994839106
 73
1
 72
2
 10
2.3370186019399708
 20
0.1922951445034349
 40
0.0833870762621513
 50
160.6833606816142037
 51
181.2907110627668033
 73
1
 72
1
 10
2.2536526831210879
 20
0.1904168295582754
 11
2.2536526831210879
 21
0.0039284209181361
 72
1
 10
2.2536526831210879
 20
0.0039284209181361
 11
2.191249491308823
 21
0.0039284209181361
 72
1
 10
2.191249491308823
 20
0.0039284209181361
 11
2.191249491308823
 21
0.0039284209181361
 97
0
 92
1
 93
17
 72
1
 10
1.7093829241249281
 20
0.0039284209181361
 11
1.644399874007642
 21
0.2209730018386311
 72
1
 10
1.644399874007642
 20
0.2209730018386311
 11
1.643243069216066
 21
0.2209730018386311
 72
1
 10
1.643243069216066
 20
0.2209730018386311
 11
1.578406914945327
 21
0.0039284209181361
 72
1
 10
1.578406914945327
 20
0.0039284209181361
 11
1.5233209724893031
 21
0.0039284209181361
 72
1
 10
1.5233209724893031
 20
0.0039284209181361
 11
1.4241938190396921
 21
0.3142169766339404
 72
1
 10
1.4241938190396921
 20
0.3142169766339404
 11
1.4901867781020059
 21
0.3142169766339404
 72
1
 10
1.4901867781020059
 20
0.3142169766339404
 11
1.5497163199161481
 21
0.0968864078621945
 72
1
 10
1.5497163199161481
 20
0.0968864078621945
 11
1.5508639437173151
 21
0.0968864078621945
 72
1
 10
1.5508639437173151
 20
0.0968864078621945
 11
1.6211536062911991
 21
0.3142169766339404
 72
1
 10
1.6211536062911991
 20
0.3142169766339404
 11
1.6666270517886459
 21
0.3142169766339404
 72
1
 10
1.6666270517886459
 20
0.3142169766339404
 11
1.7367789995063909
 21
0.0968864078621945
 72
1
 10
1.7367789995063909
 20
0.0968864078621945
 11
1.7380735191541079
 21
0.0968864078621945
 72
1
 10
1.7380735191541079
 20
0.0968864078621945
 11
1.7974561651217009
 21
0.3142169766339404
 72
1
 10
1.7974561651217009
 20
0.3142169766339404
 11
1.8635868390401551
 21
0.3142169766339404
 72
1
 10
1.8635868390401551
 20
0.3142169766339404
 11
1.7643219707344029
 21
0.0039284209181361
 72
1
 10
1.7643219707344029
 20
0.0039284209181361
 11
1.7093829241249281
 21
0.0039284209181361
 72
1
 10
1.7093829241249281
 20
0.0039284209181361
 11
1.7093829241249281
 21
0.0039284209181361
 97
0
 92
1
 93
29
 72
1
 10
0.860425680907335
 20
0.6293094136584234
 11
0.6671942938610581
 21
0.6293094136584234
 72
2
 10
0.765515820804665
 20
0.627404516530353
 40
0.0983399781044868
 50
178.8900811809753009
 51
198.7494095035167732
 73
1
 72
2
 10
0.7285074500914428
 20
0.6153099133454564
 40
0.0594095997196977
 50
199.1764637355477987
 51
227.0059933886927013
 73
1
 72
2
 10
0.7350916478971312
 20
0.6227841013036841
 40
0.069366885315323
 50
227.2380659604982895
 51
250.2612675662454933
 73
1
 72
2
 10
0.7400000321058501
 20
0.6388292725096296
 40
0.0861307040617002
 50
250.7927732768237945
 51
270.7136477376723747
 73
1
 72
2
 10
0.7416067051721067
 20
0.64190592223427
 40
0.0892022705141009
 50
269.6570672984212251
 51
293.6583567627996558
 73
1
 72
2
 10
0.7349122087753268
 20
0.6540510169371765
 40
0.1030206905860597
 50
294.3581567480795798
 51
316.1548876711476055
 73
1
 72
1
 10
0.8092122802059708
 20
0.5826874262607689
 11
0.8544001969016871
 21
0.5440980709920513
 72
2
 10
0.7402215332336988
 20
0.6407946967701975
 40
0.149622874834988
 50
40.2608875792637519
 51
53.1902709714280633
 73
0
 72
2
 10
0.7573519605804913
 20
0.6183175945017404
 40
0.1213634341019809
 50
53.3072374807497269
 51
68.1754683489396456
 73
0
 72
2
 10
0.7426856690017194
 20
0.6556289517688139
 40
0.1614531864405602
 50
68.2663018977017231
 51
90.1651023671728638
 73
0
 72
2
 10
0.7423258082784743
 20
0.6418072966927348
 40
0.1476308986611694
 50
90.0408977137702635
 51
108.6214018541192132
 73
0
 72
2
 10
0.7540007672129269
 20
0.6738535785357757
 40
0.1817294016610616
 50
108.8833888264065735
 51
125.055482729364698
 73
0
 72
2
 10
0.6950406845935688
 20
0.5903729457503447
 40
0.0795282298081632
 50
124.827979208593888
 51
144.8576196789854862
 73
0
 72
2
 10
0.7210210218864453
 20
0.6081457924852933
 40
0.1110040120038827
 50
145.075058737444607
 51
161.1039781045529082
 73
0
 72
2
 10
0.7900809158911339
 20
0.6320236261058326
 40
0.1840751358583149
 50
161.0336825700215115
 51
172.4678987938168007
 73
0
 72
2
 10
0.9197797582170792
 20
0.6498557063505699
 40
0.3149930677317178
 50
172.344741129317697
 51
180.3333017528283051
 73
0
 72
2
 10
0.9185358797595675
 20
0.6532774268853787
 40
0.313747885211425
 50
179.7097561781149011
 51
187.3688455531946033
 73
0
 72
2
 10
0.7996413590415268
 20
0.6689596594057159
 40
0.1938242005707931
 50
187.2790592166707597
 51
197.8418772266911674
 73
0
 72
2
 10
0.7327555738490215
 20
0.690594470081522
 40
0.1235265671861996
 50
197.7949890065583816
 51
212.0639737391518906
 73
0
 72
2
 10
0.7043172314247952
 20
0.708159094057361
 40
0.090102116661975
 50
212.1985936034745919
 51
229.814951920697581
 73
0
 72
2
 10
0.748625578162018
 20
0.6575486540150817
 40
0.1573615474709714
 50
229.3805030072716988
 51
247.543102861943936
 73
0
 72
2
 10
0.7329057596531094
 20
0.6935433192125123
 40
0.1180942372839615
 50
247.9206643823090701
 51
269.9254363020153846
 73
0
 72
2
 10
0.733698291968543
 20
0.6829289857675851
 40
0.128711948805716
 50
269.5787898000368159
 51
291.3845707185635092
 73
0
 72
2
 10
0.730715194125948
 20
0.6791607972460049
 40
0.133315818481647
 50
291.9878756367236292
 51
313.2869375094315956
 73
0
 72
2
 10
0.7452872482314475
 20
0.6924303709596396
 40
0.1136751632193856
 50
312.5262788691138098
 51
338.2229238626634924
 73
0
 72
2
 10
0.7165355103406037
 20
0.6829391841818458
 40
0.1439081392935784
 50
338.9606790785895782
 51
0.9054367625017149
 73
0
 72
1
 10
0.860425680907335
 20
0.6806651197111324
 11
0.860425680907335
 21
0.6293094136584234
 72
1
 10
0.860425680907335
 20
0.6293094136584234
 11
0.860425680907335
 21
0.6293094136584234
 97
0
 92
1
 93
29
 72
2
 10
0.4200642517861615
 20
0.6561154705126593
 40
0.4227954566231911
 50
179.6137615624222121
 51
185.5249429901274141
 73
0
 72
2
 10
0.1559230789912518
 20
0.6829848847468588
 40
0.1572999039216406
 50
185.0465662167621304
 51
196.4945344760475336
 73
0
 72
2
 10
0.1189592820723076
 20
0.6910141116737265
 40
0.1196102818846263
 50
197.8340486103882938
 51
222.5517160467830138
 73
0
 72
2
 10
0.1135124786853978
 20
0.6957026228129443
 40
0.1124274036108276
 50
222.6687043996759883
 51
233.1391983630653897
 73
0
 72
2
 10
0.1547687956569268
 20
0.6411151740761744
 40
0.180851303704141
 50
233.0557352956051886
 51
240.6797570192323406
 73
0
 72
2
 10
0.1107678846421322
 20
0.7182898558052587
 40
0.0920179347144605
 50
241.0362448758779124
 51
258.3982507858722215
 73
0
 72
2
 10
0.1237371179945572
 20
0.6560596783214037
 40
0.1555850237873664
 50
258.3285447724398978
 51
270.5529591174042139
 73
0
 72
2
 10
0.126659328554985
 20
0.659086198737737
 40
0.1525578729588648
 50
269.4664274938563722
 51
281.7859296759916106
 73
0
 72
2
 10
0.138857648333634
 20
0.7172207130759329
 40
0.0931574230853134
 50
281.7448165660622976
 51
298.8719550949476798
 73
0
 72
2
 10
0.0944713322043172
 20
0.6386830883889866
 40
0.1833674446163916
 50
299.1678442787164158
 51
306.7247681625566997
 73
0
 72
2
 10
0.1360501398400698
 20
0.6941404386009488
 40
0.1140545916416094
 50
306.6422789972427836
 51
317.016669167960174
 73
0
 72
2
 10
0.1319982595607042
 20
0.6915600235116874
 40
0.1187812642963937
 50
317.4386474276300873
 51
342.3138583225440925
 73
0
 72
2
 10
0.0929855066816166
 20
0.6830037209247312
 40
0.1585926797504741
 50
343.6508060723983249
 51
355.001507593015674
 73
0
 72
2
 10
-0.1737592338436365
 20
0.6561193039938538
 40
0.4266801064130862
 50
354.5260295621404794
 51
0.3832367127152812
 73
0
 72
2
 10
-0.1872509444041981
 20
0.6503039149361498
 40
0.4401722347105508
 50
359.6145139245522273
 51
5.3899396569586919
 73
0
 72
2
 10
0.0924829677801254
 20
0.6225066525082632
 40
0.1590702222386327
 50
4.8863962042668243
 51
16.2924041753583246
 73
0
 72
2
 10
0.1319982595607041
 20
0.6139672381035854
 40
0.1187812642963939
 50
17.686141677455808
 51
42.56135257236987
 73
0
 72
2
 10
0.1393656293295979
 20
0.6067785102195861
 40
0.1084929435428351
 50
42.3967172926568097
 51
53.3552216685021108
 73
0
 72
2
 10
0.1022865753980579
 20
0.6562703101484448
 40
0.1703335944578217
 50
53.2841996179026722
 51
61.3941823417266264
 73
0
 72
2
 10
0.1390234399452523
 20
0.5899282558727184
 40
0.0945019786542833
 50
61.6908062307473699
 51
78.5272012371616057
 73
0
 72
2
 10
0.1266635547247437
 20
0.650092660647581
 40
0.1559227360097504
 50
78.4735284144136642
 51
90.5236105409198331
 73
0
 72
2
 10
0.1237329709908536
 20
0.6531885476016093
 40
0.1590192403029416
 50
89.4574888130578358
 51
101.4144429034561057
 73
0
 72
2
 10
0.1106047056106886
 20
0.5888413043318174
 40
0.0933466548555843
 50
101.332193850964785
 51
118.3994080558967141
 73
0
 72
2
 10
0.1470557756883662
 20
0.6540560700506732
 40
0.1680529936754784
 50
118.7564353665832186
 51
126.9354129960942856
 73
0
 72
2
 10
0.1102654697322451
 20
0.6053415625515832
 40
0.1070070948430899
 50
126.8638050607583665
 51
137.9179604781940043
 73
0
 72
2
 10
0.1189592820723084
 20
0.6145131499415468
 40
0.1196102818846273
 50
137.4482839532170146
 51
162.1659513896115925
 73
0
 72
2
 10
0.156419877403788
 20
0.6225251245624051
 40
0.1577714378692191
 50
163.5626973298057862
 51
175.0665464877492923
 73
0
 72
2
 10
0.4334321525334966
 20
0.6503077850247018
 40
0.436163778567336
 50
174.5598660604362919
 51
180.3885204466749883
 73
0
 72
1
 10
-0.0027215983546655
 20
0.6532653719335066
 11
-0.0027215983546655
 21
0.6532653719335066
 97
0
 92
1
 93
29
 72
2
 10
2.0620530744743091
 20
0.6561056903719036
 40
0.422795895750657
 50
179.6150873631058005
 51
185.5262687908108887
 73
0
 72
2
 10
1.7979093310020839
 20
0.6830155686324768
 40
0.1572941440108478
 50
185.0355312173296909
 51
196.4834994766150942
 73
0
 72
2
 10
1.760943927409818
 20
0.6910074075037022
 40
0.1196137336293988
 50
197.8368901420793122
 51
222.5545575784740038
 73
0
 72
2
 10
1.7554976289773809
 20
0.6957131437228966
 40
0.1124195643838787
 50
222.6650947287951112
 51
233.1355886921844842
 73
0
 72
2
 10
1.7967558739568961
 20
0.6410717703392441
 40
0.1808877326341494
 50
233.0632662686963101
 51
240.6872879923234905
 73
0
 72
2
 10
1.7527583140036009
 20
0.7182868492364891
 40
0.0920207875439435
 50
241.0369013342206017
 51
258.3989072442149109
 73
0
 72
2
 10
1.765724334009382
 20
0.6560939726453771
 40
0.1555506956547813
 50
258.3273140486787156
 51
270.5517283936429749
 73
0
 72
2
 10
1.768643790272687
 20
0.6590776918384668
 40
0.1525663880413284
 50
269.4661124707511135
 51
281.7856146528865224
 73
0
 72
2
 10
1.7808430281503771
 20
0.7172207130759329
 40
0.0931574230853134
 50
281.7448165660622976
 51
298.8719550949476798
 73
0
 72
2
 10
1.7364567120210599
 20
0.638683088388989
 40
0.1833674446163895
 50
299.1678442787168706
 51
306.7247681625569271
 73
0
 72
2
 10
1.778036437755854
 20
0.6941303253503589
 40
0.1140621585481212
 50
306.6388770692573758
 51
317.013267239974823
 73
0
 72
2
 10
1.7739859346250499
 20
0.6915579421493092
 40
0.1187823339866021
 50
317.4377581853181027
 51
342.3129690802322216
 73
0
 72
2
 10
1.7349745588945229
 20
0.6829944825447352
 40
0.1585943995560975
 50
343.6475100929467885
 51
354.9982116135642514
 73
0
 72
2
 10
1.468231195517832
 20
0.6561103308808682
 40
0.4266805055283564
 50
354.5248242435960719
 51
0.3820313941708663
 73
0
 72
2
 10
1.454739484957271
 20
0.6503130153306054
 40
0.4401726326168109
 50
359.6156988672549915
 51
5.391124599661512
 73
0
 72
2
 10
1.7344720199930319
 20
0.6225158457973138
 40
0.1590719203477784
 50
4.889667312728097
 51
16.2956752838195982
 73
0
 72
2
 10
1.7739859346250499
 20
0.6139693194659636
 40
0.1187823339866018
 50
17.6870309197678459
 51
42.5622418146819612
 73
0
 72
2
 10
1.7813519272453819
 20
0.6067880813697116
 40
0.1085000751895367
 50
42.4001229298618583
 51
53.3586273057071097
 73
0
 72
2
 10
1.7442719552148009
 20
0.6562703101484428
 40
0.17033359445782
 50
53.2841996179022743
 51
61.3941823417262214
 73
0
 72
2
 10
1.781008819761996
 20
0.5899282558727182
 40
0.0945019786542831
 50
61.6908062307473202
 51
78.5272012371615489
 73
0
 72
2
 10
1.7686480164424461
 20
0.6501013592044879
 40
0.1559314425958193
 50
78.473836539639322
 51
90.5239186661454909
 73
0
 72
2
 10
1.7657201870056789
 20
0.6531534803749909
 40
0.1589841399114128
 50
89.4586925764670866
 51
101.4156466668654133
 73
0
 72
2
 10
1.7525951349721569
 20
0.5888443636277167
 40
0.0933495643127016
 50
101.3315486226703825
 51
118.3987628276023116
 73
0
 72
2
 10
1.789042853988335
 20
0.6540965197528026
 40
0.1680870649551664
 50
118.7489378759877923
 51
126.9279155054989019
 73
0
 72
2
 10
1.752250620024228
 20
0.6053316003383404
 40
0.1069997029700909
 50
126.8674183167491805
 51
137.9215737341849035
 73
0
 72
2
 10
1.7609439274098191
 20
0.6145198541115711
 40
0.1196137336293995
 50
137.4454424215259962
 51
162.1631098579206025
 73
0
 72
2
 10
1.7984061294146201
 20
0.6224945907251
 40
0.1577657506452357
 50
163.573649161644795
 51
175.0774983195881873
 73
0
 72
2
 10
2.0754209752216441
 20
0.6503177038852427
 40
0.4361642163641644
 50
174.5585626706964888
 51
180.3872170569352136
 73
0
 72
1
 10
1.6392667193790089
 20
0.6532653719335066
 11
1.6392667193790089
 21
0.6532653719335066
 97
0
 92
1
 93
34
 72
1
 10
0.7929008671516788
 20
0.0027807971169689
 11
0.7929008671516788
 21
0.0301802694648823
 72
1
 10
0.7929008671516788
 20
0.0301802694648823
 11
0.7916063475039614
 21
0.0301802694648823
 72
2
 10
0.7471781844431736
 20
0.0536935924678179
 40
0.050266669191387
 50
27.889746749963706
 51
68.4491180814887485
 73
0
 72
2
 10
0.7305592513232593
 20
0.0937854674376953
 40
0.0936632260941325
 50
68.0023795801738942
 51
81.5831173762500583
 73
0
 72
2
 10
0.7184419313375134
 20
0.1719584948146961
 40
0.1727687951677118
 50
81.4026199999888576
 51
90.4258982448299236
 73
0
 72
2
 10
0.7179092258710764
 20
0.1443345147884601
 40
0.1451419877328759
 50
90.296672707447982
 51
108.4067663147909002
 73
0
 72
2
 10
0.6993837643275221
 20
0.0875528035640007
 40
0.0854164054730335
 50
108.6427344740144321
 51
134.4659936185121012
 73
0
 72
2
 10
0.697779539753884
 20
0.091062438341194
 40
0.086872139724103
 50
132.0887657512194266
 51
156.6360447720153104
 73
0
 72
2
 10
0.7049006367092389
 20
0.0926488773589431
 40
0.0940484169385563
 50
157.4692734732059023
 51
180.7459018882481416
 73
0
 72
2
 10
0.710685581904299
 20
0.094962919491599
 40
0.0998313401656415
 50
179.3745733817488883
 51
200.3192902788202048
 73
0
 72
2
 10
0.7001319826677772
 20
0.0978794404904414
 40
0.0889265637150768
 50
200.9183240106449944
 51
223.5462882416454136
 73
0
 72
2
 10
0.6923406978014155
 20
0.1052034458574385
 40
0.0782335194213879
 50
223.5896148538375883
 51
250.5608829620805977
 73
0
 72
2
 10
0.708004616448683
 20
0.058193310210404
 40
0.1277798946182552
 50
250.9528729668651863
 51
270.3744578937261736
 73
0
 72
1
 10
0.7088397189637874
 20
0.1859704759030334
 11
0.7929008671516788
 21
0.1859704759030334
 72
1
 10
0.7929008671516788
 20
0.1859704759030334
 11
0.7929008671516788
 21
0.2188209776866823
 72
2
 10
0.7537540682702571
 20
0.2200308915355054
 40
0.0391654918797665
 50
358.2297174179337844
 51
25.3896921933346214
 73
1
 72
2
 10
0.7604545011355237
 20
0.2222842889518106
 40
0.0321569427472466
 50
26.8815721087687969
 51
57.8840211631407229
 73
1
 72
2
 10
0.7482990731782919
 20
0.2018688219161321
 40
0.0559133416582571
 50
58.4560782895086319
 51
79.8516948828347068
 73
1
 72
2
 10
0.7349665048674073
 20
0.1326809956277794
 40
0.1263713239523823
 50
79.4285334198583826
 51
91.8308025030836035
 73
1
 72
2
 10
0.7301157050939584
 20
0.1120471987490259
 40
0.1469428637025748
 50
89.6828085150273182
 51
97.392803361832037
 73
1
 72
2
 10
0.7221431576867259
 20
0.1720780307403827
 40
0.0863854039683677
 50
97.2720606127687262
 51
108.2654646593935013
 73
1
 72
2
 10
0.712557867717904
 20
0.2136072877211173
 40
0.044118333786901
 50
113.3549111435555972
 51
151.373205065289568
 73
1
 72
1
 10
0.6738326025329853
 20
0.2347444874526366
 11
0.6260639094332041
 21
0.2723287078913399
 72
2
 10
0.7124466267640663
 20
0.2088362738271212
 40
0.1072066370933386
 50
216.3163759805183872
 51
246.0247379042797604
 73
0
 72
2
 10
0.7173923107973172
 20
0.1962393783570268
 40
0.1207278141758981
 50
246.3093364964894931
 51
259.9729099318511771
 73
0
 72
2
 10
0.7242680974695539
 20
0.156537026142436
 40
0.1610209662382298
 50
260.0234247552153306
 51
271.2987838909343168
 73
0
 72
2
 10
0.7323902068953693
 20
0.1100775357481909
 40
0.2074872956336538
 50
268.7648934854635741
 51
282.9584920190372941
 73
0
 72
2
 10
0.7505812348607507
 20
0.1893599580651937
 40
0.1261447377793648
 50
282.9816305390257867
 51
302.7728960205203066
 73
0
 72
2
 10
0.7765257883236265
 20
0.2354915227702968
 40
0.0733801391875412
 50
305.2384559817414811
 51
337.5256782436943581
 73
0
 72
2
 10
0.7485146731386352
 20
0.2231845112472326
 40
0.1039705534634963
 50
337.1594767335366782
 51
349.8862672494029766
 73
0
 72
2
 10
0.6987467579521915
 20
0.2141572006774756
 40
0.1545504215038192
 50
349.8315271903172743
 51
359.6004725257289465
 73
0
 72
1
 10
0.853293422064298
 20
0.2152348828327955
 11
0.853293422064298
 21
0.0027807971169689
 72
1
 10
0.853293422064298
 20
0.0027807971169689
 11
0.7929008671516788
 21
0.0027807971169689
 72
1
 10
0.7929008671516788
 20
0.0027807971169689
 11
0.7929008671516788
 21
0.0027807971169689
 97
0
 92
1
 93
33
 72
1
 10
2.6796583318696099
 20
0.5889984390681471
 11
2.7257101797628449
 21
0.5476844412756505
 72
2
 10
2.5968229032825572
 20
0.6601447266073838
 40
0.1710533420176325
 50
41.1062466613926318
 51
61.9106222193306763
 73
0
 72
2
 10
2.6194712570052432
 20
0.6170017495538374
 40
0.1223285101098463
 50
61.7546057809669264
 51
76.7246930921408961
 73
0
 72
2
 10
2.6148317561389609
 20
0.6382270575945147
 40
0.1440524498906425
 50
76.8672640522230068
 51
90.2886412691871243
 73
0
 72
2
 10
2.613440604024218
 20
0.6384615956590205
 40
0.1442866945822177
 50
89.7357485108155544
 51
110.5106090249113606
 73
0
 72
2
 10
2.61934868642554
 20
0.6504323592941823
 40
0.157574369393221
 50
110.9975727452103058
 51
130.581182837700311
 73
0
 72
2
 10
2.5821893815257231
 20
0.6081847263787326
 40
0.1013175696383303
 50
130.1633823177705267
 51
146.3797615750152943
 73
0
 72
2
 10
2.6013302487114101
 20
0.6204354584640376
 40
0.1240403512415534
 50
146.5629218416808897
 51
160.7278253070894891
 73
0
 72
2
 10
2.6513969645045159
 20
0.6379263054098711
 40
0.1770743555897144
 50
160.7323994641870968
 51
171.9021400257975927
 73
0
 72
2
 10
2.7428494023484968
 20
0.6511815407378588
 40
0.2694822101573784
 50
171.8509665387148289
 51
180.2906016284674138
 73
0
 72
2
 10
2.7433141677385779
 20
0.6539053816945961
 40
0.2699469203859589
 50
179.7119682457872329
 51
188.14192170507593
 73
0
 72
2
 10
2.6523980475150108
 20
0.6670668646149486
 40
0.1780832705000982
 50
188.0927694386224971
 51
199.220080702003429
 73
0
 72
2
 10
2.6025183886796528
 20
0.6844442823258146
 40
0.1252632475391995
 50
199.2253159278033365
 51
213.2976601416108053
 73
0
 72
2
 10
2.583365776675691
 20
0.6966377596711281
 40
0.1025613512286665
 50
213.4780457817024057
 51
229.5625213252203025
 73
0
 72
2
 10
2.6197513593733541
 20
0.655784766044411
 40
0.157260029844505
 50
229.1269147104414117
 51
248.8011903891761847
 73
0
 72
2
 10
2.613450461807878
 20
0.6686004862435214
 40
0.1430384726849537
 50
249.2980109018018879
 51
270.262608794373989
 73
0
 72
2
 10
2.6148314344417738
 20
0.6688850331936158
 40
0.142754266226522
 50
269.7088629702728895
 51
283.2544620676034128
 73
0
 72
2
 10
2.619369933338668
 20
0.6895292046740297
 40
0.1216198662257813
 50
283.4031513131541828
 51
298.4791845819452192
 73
0
 72
2
 10
2.595214696360916
 20
0.643928455298688
 40
0.1732214141954235
 50
298.3098271026507859
 51
318.8809674514528183
 73
0
 72
1
 10
2.7257101797628449
 20
0.7578432793891428
 11
2.6796583318696099
 21
0.7168152694478971
 72
2
 10
2.6074616079533728
 20
0.6602059745382386
 40
0.0917440963463376
 50
38.099917569329449
 51
61.8936572900841995
 73
1
 72
2
 10
2.6170925897065249
 20
0.6755956587897827
 40
0.0736425226863798
 50
62.8623599770557817
 51
90.4306933637631403
 73
1
 72
2
 10
2.614589111471366
 20
0.6542941504221609
 40
0.0949619719204658
 50
88.8234285794258795
 51
110.5846239463015053
 73
1
 72
2
 10
2.6038755692766702
 20
0.6849939215929016
 40
0.0624601571944295
 50
111.2856747796174943
 51
140.0935153841462864
 73
1
 72
2
 10
2.618150719333705
 20
0.6750046860264939
 40
0.0798329833176598
 50
141.166792113819497
 51
165.6070464431832931
 73
1
 72
2
 10
2.6942498150629701
 20
0.6550821940575937
 40
0.1584962203998636
 50
165.4692479558522962
 51
180.9160188407321073
 73
1
 72
2
 10
2.6928795867529689
 20
0.6500274860070205
 40
0.1571259595149513
 50
179.0807356340039007
 51
194.5942704130077914
 73
1
 72
2
 10
2.6176526319284892
 20
0.6302538085844642
 40
0.0793440303450941
 50
194.4639012380216627
 51
218.967985108993787
 73
1
 72
2
 10
2.6037695925702971
 20
0.6205386666510706
 40
0.0624513838219915
 50
220.0482055690569894
 51
248.815500781868991
 73
1
 72
2
 10
2.6145860915805872
 20
0.6516133983828887
 40
0.0953417821080948
 50
249.5030121794951015
 51
271.1736988813253788
 73
1
 72
2
 10
2.617151891209502
 20
0.6297122976553479
 40
0.0734232357412122
 50
269.5217429418543134
 51
297.3022800935416967
 73
1
 72
2
 10
2.6079146257599422
 20
0.6441088058179625
 40
0.0904671868118465
 50
298.3186817521420835
 51
322.4701114754345213
 73
1
 72
1
 10
2.6796583318696099
 20
0.5889984390681471
 11
2.6796583318696099
 21
0.5889984390681471
 97
0
 92
1
 93
25
 72
1
 10
0.9149918183421167
 20
0.4977628059248802
 11
0.9149918183421167
 21
0.8080513616406846
 72
1
 10
0.9149918183421167
 20
0.8080513616406846
 11
0.9773950101543809
 21
0.8080513616406846
 72
1
 10
0.9773950101543809
 20
0.8080513616406846
 11
0.9773950101543809
 21
0.7749134948572232
 72
1
 10
0.9773950101543809
 20
0.7749134948572232
 11
0.9785426339555482
 21
0.7749134948572232
 72
2
 10
1.0521870411092631
 20
0.7176917758334593
 40
0.0932621243220241
 50
217.8472138817867005
 51
245.35193141015219
 73
0
 72
2
 10
1.057333523435203
 20
0.7016281678715575
 40
0.1100270029461091
 50
246.4047525988088978
 51
271.0281490921037744
 73
0
 72
2
 10
1.059128722232366
 20
0.7154113340567402
 40
0.0962262890826952
 50
270.1066318122520329
 51
291.7775486676191008
 73
0
 72
2
 10
1.046117389835298
 20
0.6849691662671258
 40
0.1293254984739714
 50
292.1269129838441927
 51
309.9111647918466019
 73
0
 72
2
 10
1.0750140000687169
 20
0.7174518820621408
 40
0.0858801182954674
 50
309.0278243299854921
 51
337.439047512572813
 73
0
 72
2
 10
1.058964765589212
 20
0.7108377671282884
 40
0.1032387587220012
 50
337.4665731459646736
 51
349.9812285231732858
 73
0
 72
2
 10
1.02410805856114
 20
0.704736886315481
 40
0.1386253157618992
 50
350.0044577680215525
 51
0.2846513823616801
 73
0
 72
1
 10
1.162731663547669
 20
0.7040481841846731
 11
1.162731663547669
 21
0.4977628059248802
 72
1
 10
1.162731663547669
 20
0.4977628059248802
 11
1.1003284717354049
 21
0.4977628059248802
 72
1
 10
1.1003284717354049
 20
0.4977628059248802
 11
1.1003284717354049
 21
0.6825306969623097
 72
2
 10
1.0173628137863611
 20
0.6838967088565768
 40
0.082976902734514
 50
359.0567224202151806
 51
18.702301241006019
 73
1
 72
2
 10
1.042661504902155
 20
0.6919526662919426
 40
0.0564329511236246
 50
19.1911381095802867
 51
44.6198524297892902
 73
1
 72
2
 10
1.041095217624358
 20
0.6908158989376588
 40
0.058346998218911
 50
44.3340662136268548
 51
67.7661517784272291
 73
1
 72
2
 10
1.039947253446307
 20
0.6859501859819955
 40
0.0632900956996245
 50
68.4709509817434707
 51
90.6585699417952782
 73
1
 72
2
 10
1.038402820638753
 20
0.6835621611772019
 40
0.0656790210852246
 50
89.2872815216835392
 51
111.1314823724687955
 73
1
 72
2
 10
1.0362470522799561
 20
0.6910972900329987
 40
0.0578777150219743
 50
111.8300840650533985
 51
135.6014548955273824
 73
1
 72
2
 10
1.035061976987631
 20
0.6919526662919432
 40
0.0564329511236242
 50
135.3801475702111361
 51
160.8088618904201894
 73
1
 72
2
 10
1.060360668103425
 20
0.6838967088565765
 40
0.0829769027345144
 50
161.2976987589937892
 51
180.943277579784592
 73
1
 72
1
 10
0.9773950101543809
 20
0.6825306969623097
 11
0.9773950101543809
 21
0.4977628059248802
 72
1
 10
0.9773950101543809
 20
0.4977628059248802
 11
0.9149918183421167
 21
0.4977628059248802
 72
1
 10
0.9149918183421167
 20
0.4977628059248802
 11
0.9149918183421167
 21
0.4977628059248802
 97
0
 92
1
 93
34
 72
1
 10
2.0574595021035811
 20
0.0027807971169689
 11
2.0574595021035811
 21
0.0301802694648823
 72
1
 10
2.0574595021035811
 20
0.0301802694648823
 11
2.056164982455865
 21
0.0301802694648823
 72
2
 10
2.0117368193950762
 20
0.0536935924678203
 40
0.0502666691913889
 50
27.8897467499656422
 51
68.4491180814906812
 73
0
 72
2
 10
1.9951178862751611
 20
0.0937854674376933
 40
0.0936632260941306
 50
68.0023795801735957
 51
81.5831173762497457
 73
0
 72
2
 10
1.9830005662894159
 20
0.1719584948146929
 40
0.1727687951677085
 50
81.4026199999887581
 51
90.4258982448298241
 73
0
 72
2
 10
1.9824678608229791
 20
0.1443345147884615
 40
0.1451419877328773
 50
90.2966727074478825
 51
108.4067663147908007
 73
0
 72
2
 10
1.9639423992794249
 20
0.0875528035639989
 40
0.0854164054730321
 50
108.6427344740151852
 51
134.4659936185126696
 73
0
 72
2
 10
1.9623381747057871
 20
0.0910624383411952
 40
0.0868721397241038
 50
132.0887657512188866
 51
156.6360447720146851
 73
0
 72
2
 10
1.9694592716611421
 20
0.0926488773589421
 40
0.0940484169385566
 50
157.4692734732066128
 51
180.7459018882487385
 73
0
 72
2
 10
1.9752442168562021
 20
0.0949629194916014
 40
0.099831340165641
 50
179.3745733817476093
 51
200.3192902788188121
 73
0
 72
2
 10
1.964690617619679
 20
0.0978794404904416
 40
0.0889265637150763
 50
200.9183240106449091
 51
223.5462882416454988
 73
0
 72
2
 10
1.956899332753318
 20
0.1052034458574385
 40
0.0782335194213879
 50
223.5896148538375883
 51
250.5608829620805977
 73
0
 72
2
 10
1.972563251400586
 20
0.0581933102104015
 40
0.1277798946182578
 50
250.9528729668654137
 51
270.3744578937262872
 73
0
 72
1
 10
1.973398353915691
 20
0.1859704759030334
 11
2.0574595021035811
 21
0.1859704759030334
 72
1
 10
2.0574595021035811
 20
0.1859704759030334
 11
2.0574595021035811
 21
0.2188209776866823
 72
2
 10
2.0183127032221422
 20
0.2200308915355054
 40
0.0391654918797833
 50
358.2297174179345802
 51
25.3896921933230217
 73
1
 72
2
 10
2.0250131360874271
 20
0.2222842889518077
 40
0.0321569427472483
 50
26.88157210877295
 51
57.8840211631453201
 73
1
 72
2
 10
2.0128577081301939
 20
0.2018688219161342
 40
0.0559133416582551
 50
58.4560782895078006
 51
79.8516948828337831
 73
1
 72
2
 10
1.999525139819309
 20
0.1326809956277734
 40
0.1263713239523882
 50
79.4285334198586952
 51
91.8308025030833051
 73
1
 72
2
 10
1.9946743400458611
 20
0.112047198749026
 40
0.1469428637025748
 50
89.6828085150273182
 51
97.392803361832037
 73
1
 72
2
 10
1.9867017926386279
 20
0.1720780307403803
 40
0.08638540396837
 50
97.2720606127683993
 51
108.2654646593930892
 73
1
 72
2
 10
1.9771165026698061
 20
0.2136072877211173
 40
0.044118333786901
 50
113.3549111435555972
 51
151.373205065289568
 73
1
 72
1
 10
1.938391237484888
 20
0.2347444874526366
 11
1.890622544385107
 21
0.2723287078913399
 72
2
 10
1.9770052617159679
 20
0.2088362738271232
 40
0.1072066370933367
 50
216.3163759805177904
 51
246.0247379042793341
 73
0
 72
2
 10
1.9819509457492199
 20
0.196239378357021
 40
0.1207278141759037
 50
246.3093364964902889
 51
259.9729099318519161
 73
0
 72
2
 10
1.988826732421457
 20
0.156537026142432
 40
0.1610209662382338
 50
260.0234247552156717
 51
271.298783890933862
 73
0
 72
2
 10
1.9969488418472721
 20
0.1100775357481895
 40
0.2074872956336552
 50
268.7648934854634035
 51
282.9584920190371804
 73
0
 72
2
 10
2.0151398698126539
 20
0.189359958065191
 40
0.1261447377793674
 50
282.9816305390253888
 51
302.7728960205199087
 73
0
 72
2
 10
2.0410844232755299
 20
0.2354915227702976
 40
0.0733801391875407
 50
305.2384559817419927
 51
337.5256782436949266
 73
0
 72
2
 10
2.0130733080905379
 20
0.2231845112472346
 40
0.1039705534634957
 50
337.1594767335378151
 51
349.8862672494038293
 73
0
 72
2
 10
1.963305392904239
 20
0.2141572006774942
 40
0.154550421503673
 50
349.8315271903146026
 51
359.6004725257354835
 73
0
 72
1
 10
2.1178520570161998
 20
0.2152348828327955
 11
2.1178520570161998
 21
0.0027807971169689
 72
1
 10
2.1178520570161998
 20
0.0027807971169689
 11
2.0574595021035811
 21
0.0027807971169689
 72
1
 10
2.0574595021035811
 20
0.0027807971169689
 11
2.0574595021035811
 21
0.0027807971169689
 97
0
 92
1
 93
29
 72
1
 10
2.660012486698403
 20
0.1354750286516793
 11
2.4667893625434938
 21
0.1354750286516793
 72
2
 10
2.5651090532890199
 20
0.1335596426489166
 40
0.0983383459889142
 50
178.8839503741905901
 51
198.7432786967320339
 73
1
 72
2
 10
2.5280979282786742
 20
0.121471822568009
 40
0.0594075153841284
 50
199.1733788671002685
 51
227.0029085202453984
 73
1
 72
2
 10
2.5346807489358012
 20
0.1289474623325091
 40
0.0693649188341234
 50
227.2370802786830097
 51
250.2602818844302988
 73
1
 72
2
 10
2.5395877559959579
 20
0.1449896595979396
 40
0.0861254651314103
 50
250.7922058681756141
 51
270.7130803290240806
 73
1
 72
2
 10
2.5411935109631738
 20
0.1480715372275256
 40
0.0892022705141006
 50
269.657067298421282
 51
293.6583567627996558
 73
1
 72
2
 10
2.5344999326654349
 20
0.1602214002837477
 40
0.1030246558629813
 50
294.3565978802366772
 51
316.1533288033047029
 73
1
 72
1
 10
2.6088009221951189
 20
0.0888530412540247
 11
2.6539897569898772
 21
0.0502636859853072
 72
2
 10
2.5398106342723681
 20
0.146964362984209
 40
0.1496258433446105
 50
40.2619578052756495
 51
53.1913411974399679
 73
0
 72
2
 10
2.5569419797182009
 20
0.124472655244712
 40
0.1213541483968514
 50
53.304781354240454
 51
68.1730122224303159
 73
0
 72
2
 10
2.5422747700403892
 20
0.1618064307161333
 40
0.1614650569751291
 50
68.2671042303721265
 51
90.1659046998432814
 73
0
 72
2
 10
2.541913073119062
 20
0.1479701054440284
 40
0.1476280927483113
 50
90.0410766523567645
 51
108.6215807927056716
 73
0
 72
2
 10
2.5535880320535118
 20
0.1800224246196051
 40
0.1817323102896589
 50
108.8829221984147182
 51
125.0550161013732691
 73
0
 72
2
 10
2.4946284084837149
 20
0.0965333618092671
 40
0.0795244865836064
 50
124.8306614300117587
 51
144.8603019003897145
 73
0
 72
2
 10
2.5206092048260729
 20
0.1143146678151739
 40
0.1110055022187175
 50
145.0735433308931874
 51
161.1024626980016023
 73
0
 72
2
 10
2.5896709350288449
 20
0.1381663149528534
 40
0.1840698565843054
 50
161.0406636103145956
 51
172.4748798341099985
 73
0
 72
2
 10
2.7193729907010038
 20
0.1560081730537055
 40
0.3149922264083849
 50
172.3471336797403808
 51
180.3356943032619313
 73
0
 72
2
 10
2.7181263579463342
 20
0.1594979046354998
 40
0.3137444955794652
 50
179.6997339146647903
 51
187.3588232897558044
 73
0
 72
2
 10
2.5992318372287579
 20
0.1750855470233565
 40
0.1938328808232481
 50
187.2905701988068188
 51
197.8533882088272264
 73
0
 72
2
 10
2.5323465110857728
 20
0.1967857573494459
 40
0.1235156640507992
 50
197.784105591636262
 51
212.0530903242299416
 73
0
 72
2
 10
2.5039044962654402
 20
0.214327671532746
 40
0.0901001496649408
 50
212.1971550024169062
 51
229.813513319625514
 73
0
 72
2
 10
2.548215138250209
 20
0.1636970373458857
 40
0.1573764205629211
 50
229.383826123176533
 51
247.5464259778487417
 73
0
 72
2
 10
2.532496696889861
 20
0.1997160174461111
 40
0.1180871558499507
 50
247.9199917190937583
 51
269.9247636387997886
 73
0
 72
2
 10
2.533288311106253
 20
0.1890922175979637
 40
0.1287143352796265
 50
269.5785932633742163
 51
291.3843741819009097
 73
0
 72
2
 10
2.530303377065577
 20
0.1853386184181858
 40
0.1333053596751133
 50
291.990754674096479
 51
313.2898165468042748
 73
0
 72
2
 10
2.5448735949729939
 20
0.1985939732973844
 40
0.1136763362090155
 50
312.5254226731607901
 51
338.2220676667105863
 73
0
 72
2
 10
2.5161223161316708
 20
0.1891047991750997
 40
0.143908139293579
 50
338.9606790785887824
 51
0.9054367625010024
 73
0
 72
1
 10
2.660012486698403
 20
0.1868307347043883
 11
2.660012486698403
 21
0.1354750286516793
 72
1
 10
2.660012486698403
 20
0.1354750286516793
 11
2.660012486698403
 21
0.1354750286516793
 97
0
 92
1
 93
17
 72
1
 10
0.9257243720741903
 20
0.0039284209181361
 11
0.9257243720741903
 21
0.3142169766339404
 72
1
 10
0.9257243720741903
 20
0.3142169766339404
 11
0.9881275638864548
 21
0.3142169766339404
 72
1
 10
0.9881275638864548
 20
0.3142169766339404
 11
0.9881275638864548
 21
0.281079109850479
 72
1
 10
0.9881275638864548
 20
0.281079109850479
 11
0.9892751876876225
 21
0.281079109850479
 72
2
 10
1.062919594841337
 20
0.2238573908267147
 40
0.0932621243220245
 50
217.8472138817867858
 51
245.35193141015219
 73
0
 72
2
 10
1.068066077167277
 20
0.2077937828648144
 40
0.1100270029461079
 50
246.4047525988087557
 51
271.0281490921037744
 73
0
 72
2
 10
1.0700651234211791
 20
0.2225214646296732
 40
0.0952816100760431
 50
269.9851091802236738
 51
290.4222257057465981
 73
0
 72
2
 10
1.0615548787946629
 20
0.2017469889455382
 40
0.1177221099268784
 50
290.7757663026551995
 51
308.5235734205326139
 73
0
 72
1
 10
1.1348765145892989
 20
0.293847113212744
 11
1.089834575641091
 21
0.2400520180082744
 72
2
 10
1.040209079196224
 20
0.1756410185357801
 40
0.0813109263902774
 50
52.3875227198424227
 51
69.0250922198870853
 73
1
 72
2
 10
1.0483241610800189
 20
0.1960806939139032
 40
0.0593213456166988
 50
69.2769757571794429
 51
89.8107330410768441
 73
1
 72
2
 10
1.0484936351163081
 20
0.1914574691164005
 40
0.0639442522415958
 50
89.9762699032563376
 51
130.6386730184287046
 73
1
 72
2
 10
1.0369512884551539
 20
0.2039854528788079
 40
0.0469240719527242
 50
129.9067749785274088
 51
160.2023198994838253
 73
1
 72
2
 10
1.071493482705338
 20
0.1922951445034349
 40
0.0833870762621513
 50
160.6833606816142037
 51
181.2907110627668033
 73
1
 72
1
 10
0.9881275638864548
 20
0.1904168295582754
 11
0.9881275638864548
 21
0.0039284209181361
 72
1
 10
0.9881275638864548
 20
0.0039284209181361
 11
0.9257243720741903
 21
0.0039284209181361
 72
1
 10
0.9257243720741903
 20
0.0039284209181361
 11
0.9257243720741903
 21
0.0039284209181361
 97
0
 92
1
 93
25
 72
1
 10
1.951724606222927
 20
0.6017664424304121
 11
1.951724606222927
 21
0.8080513616406846
 72
1
 10
1.951724606222927
 20
0.8080513616406846
 11
2.014127798035191
 21
0.8080513616406846
 72
1
 10
2.014127798035191
 20
0.8080513616406846
 11
2.014127798035191
 21
0.6229974827520042
 72
2
 10
2.097879595531551
 20
0.6215828630433829
 40
0.0837637435457086
 50
179.0323308295433833
 51
198.6149715028966796
 73
1
 72
2
 10
2.0711642618898352
 20
0.6130697487520527
 40
0.0557304746377738
 50
199.0878652840395091
 51
224.8105300621735125
 73
1
 72
2
 10
2.0728258563891702
 20
0.6144937250256644
 40
0.0579130696028087
 50
224.6514383467203118
 51
248.3479275920576015
 73
1
 72
2
 10
2.0751304001931268
 20
0.6224430431053809
 40
0.0661565325518136
 50
249.0331013003232954
 51
270.7120849719361786
 73
1
 72
2
 10
2.0766853579261211
 20
0.6200353271607615
 40
0.0637479190456512
 50
269.3413811650824528
 51
291.3616788387315069
 73
1
 72
2
 10
2.077986222005074
 20
0.6147731286342591
 40
0.0583776510329983
 50
292.0539076995532923
 51
315.4135069257113173
 73
1
 72
2
 10
2.0800247957615721
 20
0.6130697487520536
 40
0.0557304746377743
 50
315.1894699378254927
 51
340.9121347159597235
 73
1
 72
2
 10
2.0533094621198549
 20
0.6215828630433804
 40
0.0837637435457085
 50
341.3850284971052815
 51
0.9676691704584032
 73
1
 72
1
 10
2.1370612596162148
 20
0.6229974827520042
 11
2.1370612596162148
 21
0.8080513616406846
 72
1
 10
2.1370612596162148
 20
0.8080513616406846
 11
2.1994644514284789
 21
0.8080513616406846
 72
1
 10
2.1994644514284789
 20
0.8080513616406846
 11
2.1994644514284789
 21
0.4977628059248802
 72
1
 10
2.1994644514284789
 20
0.4977628059248802
 11
2.1370612596162148
 21
0.4977628059248802
 72
1
 10
2.1370612596162148
 20
0.4977628059248802
 11
2.1370612596162148
 21
0.5306135831382415
 72
1
 10
2.1370612596162148
 20
0.5306135831382415
 11
2.135775920958908
 21
0.5306135831382415
 72
2
 10
2.0624620621222038
 20
0.5877304237103859
 40
0.0929368354016422
 50
37.921190066149741
 51
65.315977391949076
 73
0
 72
2
 10
2.057655278198689
 20
0.6029572999920103
 40
0.1087979559739985
 50
66.3647526830647934
 51
91.0156044697489506
 73
0
 72
2
 10
2.0557953465042318
 20
0.5930360376430754
 40
0.098859625720464
 50
90.0396892889960014
 51
111.4258147709128934
 73
0
 72
2
 10
2.0672226353041832
 20
0.6198839278757815
 40
0.1280291307136136
 50
111.797318668487506
 51
129.7881412802920238
 73
0
 72
2
 10
2.0388999199222599
 20
0.5877756063960843
 40
0.0852401145423895
 50
128.9708327261577665
 51
157.5567863965745801
 73
0
 72
2
 10
2.055933720934926
 20
0.5948356340889731
 40
0.1036790396132747
 50
157.5444425741507644
 51
170.0380282050616643
 73
0
 72
2
 10
2.091823274419669
 20
0.6010384079504172
 40
0.1401005598300903
 50
170.0786962802116875
 51
180.2977396438139976
 73
0
 72
1
 10
1.951724606222927
 20
0.6017664424304121
 11
1.951724606222927
 21
0.6017664424304121
 97
0
 92
1
 93
17
 72
1
 10
2.2703129662880999
 20
0.4977628059248802
 11
2.2703129662880999
 21
0.8080513616406846
 72
1
 10
2.2703129662880999
 20
0.8080513616406846
 11
2.3327161581003639
 21
0.8080513616406846
 72
1
 10
2.3327161581003639
 20
0.8080513616406846
 11
2.3327161581003639
 21
0.7749134948572232
 72
1
 10
2.3327161581003639
 20
0.7749134948572232
 11
2.333863781901532
 21
0.7749134948572232
 72
2
 10
2.407508189055247
 20
0.7176917758334598
 40
0.0932621243220238
 50
217.8472138817863879
 51
245.3519314101517921
 73
0
 72
2
 10
2.4126546713811861
 20
0.7016281678715575
 40
0.110027002946109
 50
246.4047525988088978
 51
271.0281490921037744
 73
0
 72
2
 10
2.4146537176350891
 20
0.7163558496364162
 40
0.0952816100760444
 50
269.9851091802236169
 51
290.4222257057464276
 73
0
 72
2
 10
2.406143473008572
 20
0.6955813739522823
 40
0.1177221099268785
 50
290.7757663026551995
 51
308.5235734205326139
 73
0
 72
1
 10
2.4794651088032089
 20
0.7876814982194882
 11
2.434423169855001
 21
0.7338864030150185
 72
2
 10
2.3847976734101342
 20
0.6694754035425197
 40
0.0813109263902814
 50
52.3875227198439504
 51
69.0250922198886343
 73
1
 72
2
 10
2.3929127552939291
 20
0.6899150789206485
 40
0.0593213456166976
 50
69.2769757571792155
 51
89.8107330410766309
 73
1
 72
2
 10
2.3930822293302181
 20
0.6852918541231452
 40
0.0639442522415952
 50
89.9762699032565649
 51
130.6386730184289036
 73
1
 72
2
 10
2.3815398826690628
 20
0.6978198378855511
 40
0.0469240719527247
 50
129.906774978526613
 51
160.2023198994830011
 73
1
 72
2
 10
2.4160820769192481
 20
0.686129529510179
 40
0.0833870762621513
 50
160.6833606816142037
 51
181.2907110627668033
 73
1
 72
1
 10
2.3327161581003639
 20
0.6842512145650195
 11
2.3327161581003639
 21
0.4977628059248802
 72
1
 10
2.3327161581003639
 20
0.4977628059248802
 11
2.2703129662880999
 21
0.4977628059248802
 72
1
 10
2.2703129662880999
 20
0.4977628059248802
 11
2.2703129662880999
 21
0.4977628059248802
 97
0
 92
1
 93
22
 72
1
 10
1.3242129316748641
 20
0.0039284209181361
 11
1.3242129316748641
 21
0.0362053862309138
 72
2
 10
1.2420408647850909
 20
0.1093337491682276
 40
0.1100000274674002
 50
41.6672241001412331
 51
65.4122923398719962
 73
0
 72
2
 10
1.24512790516436
 20
0.1063528623590687
 40
0.1060165366427756
 50
66.259098256099989
 51
90.5954392004363456
 73
0
 72
2
 10
1.243178237192303
 20
0.1208844855492245
 40
0.1205454171285292
 50
89.5969744639203043
 51
102.3740499587474346
 73
0
 72
2
 10
1.236398213629639
 20
0.089411094734938
 40
0.0883503439181648
 50
102.4531718074835283
 51
118.1778186842029044
 73
0
 72
2
 10
1.241945706293327
 20
0.1009216031880452
 40
0.1011177492440954
 50
117.8688182185631916
 51
143.2111737394274087
 73
0
 72
2
 10
1.2308176348276529
 20
0.0954546140315295
 40
0.0889612280988016
 50
141.7386983832340945
 51
169.5929781671246985
 73
0
 72
2
 10
1.378733658942086
 20
0.1202862656096281
 40
0.2389405525530192
 50
170.1436304288762358
 51
177.6905783181470895
 73
0
 72
2
 10
2.0395999380230179
 20
0.1555474808965539
 40
0.9007320316482055
 50
177.1433792965488578
 51
180.2470315108176919
 73
0
 72
2
 10
2.017232071721542
 20
0.1632669358327031
 40
0.878364169563833
 50
179.7497798874551904
 51
182.8927775698537062
 73
0
 72
2
 10
1.3728170933453669
 20
0.1980851762149252
 40
0.2330240618754538
 50
182.3390114930429036
 51
189.9811317724335993
 73
0
 72
2
 10
1.232711210604416
 20
0.2215475357719166
 40
0.0909797176562691
 50
190.7220312021384814
 51
217.9462922475028392
 73
0
 72
2
 10
1.244977421219718
 20
0.2133916279506284
 40
0.1056737914521368
 50
217.3438364024561054
 51
241.5765320969410368
 73
0
 72
2
 10
1.2365871537886639
 20
0.2301174576442601
 40
0.0869725117860415
 50
241.1928664436867109
 51
257.2186982647641003
 73
0
 72
2
 10
1.2431794478125591
 20
0.2001544381684068
 40
0.1176516801660474
 50
257.3159895493354838
 51
270.4123488590415718
 73
0
 72
2
 10
1.2453126132894461
 20
0.2257647539961304
 40
0.0920473076470144
 50
269.1992089374289776
 51
297.2197902975470925
 73
0
 72
2
 10
1.2095210587519289
 20
0.1608368960186112
 40
0.166169839928187
 50
297.9541045443867233
 51
313.6466333273610871
 73
0
 72
1
 10
1.3242129316748641
 20
0.281079109850479
 11
1.3242129316748641
 21
0.4394511944115438
 72
1
 10
1.3242129316748641
 20
0.4394511944115438
 11
1.3866161234871279
 21
0.4394511944115438
 72
1
 10
1.3866161234871279
 20
0.4394511944115438
 11
1.3866161234871279
 21
0.0039284209181361
 72
1
 10
1.3866161234871279
 20
0.0039284209181361
 11
1.3242129316748641
 21
0.0039284209181361
 72
1
 10
1.3242129316748641
 20
0.0039284209181361
 11
1.3242129316748641
 21
0.0039284209181361
 97
0
 92
1
 93
29
 72
1
 10
2.9996624522747291
 20
0.6293094136584234
 11
2.8064393281198212
 21
0.6293094136584234
 72
2
 10
2.904759018865346
 20
0.6273940276556593
 40
0.0983383459889135
 50
178.8839503741897943
 51
198.7432786967314087
 73
1
 72
2
 10
2.8677478938550012
 20
0.6153062075747525
 40
0.0594075153841283
 50
199.1733788670997285
 51
227.002908520244489
 73
1
 72
2
 10
2.8743307145121282
 20
0.6227818473392587
 40
0.0693649188341281
 50
227.2370802786853972
 51
250.2602818844326862
 73
1
 72
2
 10
2.8792377215722862
 20
0.6388240446046801
 40
0.0861254651314067
 50
250.7922058681751594
 51
270.7130803290236827
 73
1
 72
2
 10
2.8808434765395008
 20
0.6419059222342697
 40
0.0892022705141006
 50
269.657067298421282
 51
293.6583567627996558
 73
1
 72
2
 10
2.8741498982417619
 20
0.654055785290494
 40
0.1030246558629832
 50
294.3565978802358813
 51
316.1533288033039639
 73
1
 72
1
 10
2.9484508877714468
 20
0.5826874262607689
 11
2.9936397225662041
 21
0.5440980709920513
 72
2
 10
2.8794605998486951
 20
0.6407987479909476
 40
0.1496258433446065
 50
40.2619578052741218
 51
53.1913411974384331
 73
0
 72
2
 10
2.896591945294515
 20
0.6183070402514836
 40
0.1213541483968822
 50
53.3047813542426425
 51
68.1730122224288948
 73
0
 72
2
 10
2.8819247356167161
 20
0.6556408157228822
 40
0.1614650569751338
 50
68.267104230372496
 51
90.1659046998436224
 73
0
 72
2
 10
2.881563038695389
 20
0.6418044904507672
 40
0.1476280927483059
 50
90.0410766523570913
 51
108.62158079270597
 73
0
 72
2
 10
2.8932379976298388
 20
0.6738568096263513
 40
0.1817323102896606
 50
108.8829221984141924
 51
125.0550161013728712
 73
0
 72
2
 10
2.8342783740599922
 20
0.5903677468159615
 40
0.0795244865835365
 50
124.8306614300021096
 51
144.8603019003980137
 73
0
 72
2
 10
2.8602591704024012
 20
0.6081490528219167
 40
0.1110055022187172
 50
145.0735433308940117
 51
161.1024626980023129
 73
0
 72
2
 10
2.929320900605171
 20
0.632000699959602
 40
0.1840698565843064
 50
161.0406636103132882
 51
172.4748798341086058
 73
0
 72
2
 10
3.059022956277976
 20
0.6498425580604813
 40
0.3149922264090285
 50
172.3471336797503
 51
180.3356943032555364
 73
0
 72
2
 10
3.0577763235233562
 20
0.6533322896422077
 40
0.3137444955801598
 50
179.6997339146720947
 51
187.3588232897461126
 73
0
 72
2
 10
2.9388818028050872
 20
0.6689199320301024
 40
0.1938328808232508
 50
187.2905701988062219
 51
197.8533882088264875
 73
0
 72
2
 10
2.8719964766620989
 20
0.6906201423561918
 40
0.1235156640507985
 50
197.7841055916356083
 51
212.053090324229089
 73
0
 72
2
 10
2.8435544618416908
 20
0.7081620565395536
 40
0.0901001496648441
 50
212.1971550024080102
 51
229.8135133196358026
 73
0
 72
2
 10
2.8878651038265351
 20
0.6575314223526267
 40
0.1573764205629239
 50
229.3838261231770446
 51
247.5464259778492249
 73
0
 72
2
 10
2.872146662466188
 20
0.6935504024528554
 40
0.1180871558499506
 50
247.9199917190937583
 51
269.9247636387997886
 73
0
 72
2
 10
2.87293827668258
 20
0.6829266026047067
 40
0.1287143352796276
 50
269.578593263373989
 51
291.3843741819006823
 73
0
 72
2
 10
2.8699533426419119
 20
0.6791730034249458
 40
0.1333053596750956
 50
291.9907546740957969
 51
313.2898165468062075
 73
0
 72
2
 10
2.8845235605493209
 20
0.6924283583041287
 40
0.1136763362090152
 50
312.5254226731607901
 51
338.2220676667105863
 73
0
 72
2
 10
2.8557722817079969
 20
0.6829391841818461
 40
0.1439081392935785
 50
338.9606790785896351
 51
0.9054367625017659
 73
0
 72
1
 10
2.9996624522747291
 20
0.6806651197111324
 11
2.9996624522747291
 21
0.6293094136584234
 72
1
 10
2.9996624522747291
 20
0.6293094136584234
 11
2.9996624522747291
 21
0.6293094136584234
 97
0
 92
1
 93
46
 72
1
 10
1.3355126322399129
 20
0.5494058769774013
 11
1.379122336684264
 21
0.5925854520210752
 72
2
 10
1.477077099280947
 20
0.6908522319583996
 40
0.1387497587551891
 50
225.0911075382203137
 51
247.4880420062509927
 73
1
 72
2
 10
1.4756754891051549
 20
0.6917707867413601
 40
0.1390714230911893
 50
248.1663962691119707
 51
270.5271386147513226
 73
1
 72
2
 10
1.4779407211189211
 20
0.661533581452637
 40
0.1088327962506162
 50
269.4810376547777082
 51
282.3412516227803053
 73
1
 72
2
 10
1.4861521792036749
 20
0.6238696814491117
 40
0.0702841754756974
 50
282.3643548476665046
 51
299.582009499620824
 73
1
 72
2
 10
1.5041833902331381
 20
0.5931620021130104
 40
0.0346817157537421
 50
298.7205701675890737
 51
328.8607728337182721
 73
1
 72
2
 10
1.5043231357511071
 20
0.5918411185328485
 40
0.0338955763665622
 50
330.6499675447856816
 51
1.258293863825946
 73
1
 72
2
 10
1.5090500039085399
 20
0.5931074494889578
 40
0.0291652063057374
 50
358.9744681204052199
 51
23.3199583459564259
 73
1
 72
2
 10
1.5137115297580559
 20
0.5946561357096535
 40
0.0242751045954501
 50
24.3187923392436822
 51
51.8457724075052724
 73
1
 72
2
 10
1.5060098687923771
 20
0.5842418388257807
 40
0.037224243766125
 50
52.4268974673131822
 51
73.1048682445926516
 73
1
 72
2
 10
1.4946512775030729
 20
0.5479583879445239
 40
0.0752433783751833
 50
72.8584503544992543
 51
85.7770249960291693
 73
1
 72
1
 10
1.5001920572121921
 20
0.6229974827520042
 11
1.445253010602719
 21
0.6281617898572565
 72
2
 10
1.452988154266605
 20
0.7474094579880739
 40
0.1194982794944702
 50
93.7113602594520358
 51
111.104045480329404
 73
0
 72
2
 10
1.44528925716639
 20
0.7258860945005053
 40
0.096648107689699
 50
111.4403250244151877
 51
131.4822679223109958
 73
0
 72
2
 10
1.4281887086068461
 20
0.7069376597338634
 40
0.0711259565831861
 50
131.2729525787162004
 51
158.0270155135854111
 73
0
 72
2
 10
1.449858634609043
 20
0.7143070732626677
 40
0.0939878328314393
 50
158.8037539833649134
 51
181.0046480767611286
 73
0
 72
2
 10
1.4534403112897449
 20
0.7180241333552979
 40
0.0975770016970146
 50
178.7849505233046159
 51
203.8075842408194944
 73
0
 72
2
 10
1.4337658093113841
 20
0.725010324849521
 40
0.0767722392823194
 50
204.9646092871219878
 51
234.3490602623054144
 73
0
 72
2
 10
1.459303428588931
 20
0.6907609763172352
 40
0.1194897713365396
 50
233.9705617479496027
 51
253.9221939595140611
 73
0
 72
2
 10
1.469880073190867
 20
0.6514961614381845
 40
0.1601495029171204
 50
254.1766152053567964
 51
270.5800850555137913
 73
0
 72
2
 10
1.472800208605479
 20
0.5793058046014961
 40
0.2323352818958738
 50
269.6797168488528769
 51
279.0178568727046127
 73
0
 72
2
 10
1.484909720413359
 20
0.655073768721075
 40
0.1556057948614533
 50
278.9870048025015876
 51
291.1873057605911868
 73
0
 72
2
 10
1.472911178683727
 20
0.625179496271282
 40
0.1878162108169896
 50
291.3041934674516824
 51
309.806126345387554
 73
0
 72
1
 10
1.593149585106731
 20
0.7694627408511998
 11
1.5545618824162859
 21
0.7239883772547122
 72
2
 10
1.436750408147095
 20
0.5523292080308581
 40
0.2081980159562145
 50
55.5377855281951724
 51
67.5274316999883695
 73
1
 72
2
 10
1.473485567796218
 20
0.6357588861022236
 40
0.1170801227241167
 50
68.533310145812294
 51
90.9710129871921112
 73
1
 72
2
 10
1.469581039784315
 20
0.6491962684406478
 40
0.1036437206474847
 50
88.9383013773315554
 51
103.0383692506993043
 73
1
 72
2
 10
1.454163998141577
 20
0.7134259128030427
 40
0.0375955529259998
 50
102.2319237215976102
 51
130.0441799615433069
 73
1
 72
2
 10
1.452943285939837
 20
0.7162299976647635
 40
0.034674415638628
 50
131.4812062810491113
 51
181.4026899404296955
 73
1
 72
2
 10
1.4414947293915661
 20
0.7153851960127671
 40
0.0232154689556058
 50
180.0098652548990401
 51
205.0045920695573045
 73
1
 72
2
 10
1.448942316821489
 20
0.7191829610531488
 40
0.0315716708120435
 50
205.5377616138225108
 51
225.8830422072628608
 73
1
 72
2
 10
1.447625259263176
 20
0.7189111127097256
 40
0.0304690561632489
 50
227.3053821170468893
 51
254.3117951639614489
 73
1
 72
2
 10
1.4640472207681301
 20
0.7724791859167204
 40
0.0864922703923165
 50
253.4338491320897901
 51
266.8597206658523078
 73
1
 72
1
 10
1.459309106919414
 20
0.6861167918161966
 11
1.510667567269246
 21
0.6825306969623097
 72
2
 10
1.5009233454041919
 20
0.5296518274876894
 40
0.1531890942319113
 50
273.6469956996587598
 51
282.1097083710300808
 73
0
 72
2
 10
1.51118151466006
 20
0.5771160817123421
 40
0.1046290516232516
 50
282.0699251353573231
 51
292.9843954626920208
 73
0
 72
2
 10
1.5256307086066661
 20
0.6091682463949954
 40
0.0694837911607831
 50
292.335965542433712
 51
321.13962744846242
 73
0
 72
2
 10
1.505798504566874
 20
0.594161206380867
 40
0.0943455063290442
 50
321.5997042594715936
 51
341.7333246816688188
 73
0
 72
2
 10
1.492323815265604
 20
0.5904918886760779
 40
0.1082938121313375
 50
342.1243664964849813
 51
0.4860793660196701
 73
0
 72
2
 10
1.515323191898823
 20
0.5879025342279787
 40
0.0853068986844248
 50
358.8778581041119082
 51
27.0955814977364042
 73
0
 72
2
 10
1.5189044008711119
 20
0.588439564974071
 40
0.082390343013726
 50
28.5625508455752595
 51
57.4462080164907576
 73
0
 72
2
 10
1.4852616693380389
 20
0.6372227017071719
 40
0.1416275314831387
 50
56.593690184861039
 51
75.0628926782444381
 73
0
 72
2
 10
1.4737463513264679
 20
0.6828916372650049
 40
0.1887225595999667
 50
75.2588210090558789
 51
90.5059485118281657
 73
0
 72
2
 10
1.4708073074548531
 20
0.6866989537232281
 40
0.1925267237820439
 50
89.6212853889574461
 51
111.8345922442033924
 73
0
 72
2
 10
1.4781108125011331
 20
0.6989846506305912
 40
0.2066592619298822
 50
112.4473663421921117
 51
133.63136890082842
 73
0
 72
1
 10
1.3355126322399129
 20
0.5494058769774013
 11
1.3355126322399129
 21
0.5494058769774013
 97
0
 92
1
 93
42
 72
1
 10
0.3102208174328626
 20
0.0039284209181361
 11
0.3102208174328626
 21
0.8080513616406846
 72
1
 10
0.3102208174328626
 20
0.8080513616406846
 11
0.372622173047045
 21
0.8080513616406846
 72
1
 10
0.372622173047045
 20
0.8080513616406846
 11
0.372622173047045
 21
0.7754882248568478
 72
2
 10
0.4547520464445621
 20
0.7033327206351817
 40
0.109323981329693
 50
221.3010423787754632
 51
245.2325547484583694
 73
0
 72
2
 10
0.4516831698495298
 20
0.7061627050517454
 40
0.1054807984412625
 50
246.1022329644586648
 51
270.6135118123543748
 73
0
 72
2
 10
0.4536349321839128
 20
0.6958301698829197
 40
0.1158102060994134
 50
269.5931648626103083
 51
282.7845880932728733
 73
0
 72
2
 10
0.459944951903656
 20
0.7243770586849433
 40
0.0865748597891398
 50
282.8927568495561786
 51
298.9124027821607115
 73
0
 72
2
 10
0.4487005899288267
 20
0.702869877967198
 40
0.1108391068031412
 50
298.6253756914849191
 51
321.8567530102187106
 73
0
 72
2
 10
0.4608321514294307
 20
0.7142363365284145
 40
0.0942888438972675
 50
322.7358048020815318
 51
348.9500428816697877
 73
0
 72
2
 10
0.3300697041867202
 20
0.6918343752066767
 40
0.2269415270753891
 50
349.726642683558282
 51
357.6219747441920163
 73
0
 72
2
 10
-0.3107116000178916
 20
0.656443591647411
 40
0.8686837503321109
 50
357.0433428304344261
 51
0.256920223483551
 73
0
 72
2
 10
-0.3020319086831177
 20
0.6487124369528441
 40
0.8600038803470055
 50
359.744441166853278
 51
2.971313950091472
 73
0
 72
2
 10
0.3282234452057641
 20
0.6137540893361174
 40
0.2287947138487631
 50
2.4099905578506799
 51
10.2413178228781607
 73
0
 72
2
 10
0.4629460448408941
 20
0.5904062380137666
 40
0.0920726282197775
 50
10.8493444402694141
 51
37.6225512343476822
 73
0
 72
2
 10
0.451988880824724
 20
0.5987712741081361
 40
0.1058577571995406
 50
37.5882602308066893
 51
61.9292512196909115
 73
0
 72
2
 10
0.460135771321428
 20
0.5828071643266491
 40
0.0879385325364144
 50
61.7184465582629116
 51
77.4379427621609722
 73
0
 72
2
 10
0.4536362262821743
 20
0.6128302400898369
 40
0.118656662874627
 50
77.5277440760636409
 51
90.3977003006027644
 73
0
 72
2
 10
0.4512743738043665
 20
0.5887250968197684
 40
0.0945611734207403
 50
89.0679191937922212
 51
116.3693108030978038
 73
0
 72
2
 10
0.479427064080732
 20
0.6391754955059119
 40
0.1522923949698195
 50
117.4286558288683011
 51
134.5325757172992951
 73
0
 72
1
 10
0.3726221730470449
 20
0.5306135831382416
 11
0.3726240092451267
 21
0.281079109850479
 72
1
 10
0.3726240092451267
 20
0.281079109850479
 11
0.3737716330462943
 21
0.281079109850479
 72
2
 10
0.447416040200009
 20
0.2238573908267156
 40
0.0932621243220238
 50
217.8472138817863879
 51
245.3519314101517921
 73
0
 72
2
 10
0.4525625225259484
 20
0.2077937828648134
 40
0.110027002946109
 50
246.4047525988088978
 51
271.0281490921037744
 73
0
 72
2
 10
0.4543577213231116
 20
0.2215769490499946
 40
0.0962262890826966
 50
270.106631812251976
 51
291.7775486676189871
 73
0
 72
2
 10
0.441346388926044
 20
0.1911347812603827
 40
0.1293254984739705
 50
292.1269129838445906
 51
309.911164791846943
 73
0
 72
2
 10
0.4702429991594625
 20
0.2236174970553974
 40
0.0858801182954671
 50
309.0278243299861174
 51
337.439047512573211
 73
0
 72
2
 10
0.4541937646799571
 20
0.2170033821215421
 40
0.1032387587220018
 50
337.4665731459636504
 51
349.9812285231722058
 73
0
 72
2
 10
0.4193370576517585
 20
0.2109025013087286
 40
0.138625315762026
 50
350.0044577680274074
 51
0.2846513823580161
 73
0
 72
1
 10
0.5579606626384146
 20
0.2102137991779289
 11
0.5579606626384146
 21
0.0039284209181361
 72
1
 10
0.5579606626384146
 20
0.0039284209181361
 11
0.49555747082615
 21
0.0039284209181361
 72
1
 10
0.49555747082615
 20
0.0039284209181361
 11
0.49555747082615
 21
0.1886963119555656
 72
2
 10
0.4125918128771066
 20
0.1900623238498352
 40
0.0829769027345138
 50
359.0567224202134184
 51
18.7023012410041858
 73
1
 72
2
 10
0.4378905039929006
 20
0.1981182812851983
 40
0.0564329511236249
 50
19.1911381095803186
 51
44.6198524297891979
 73
1
 72
2
 10
0.4363242167151036
 20
0.1969815139309123
 40
0.058346998218913
 50
44.3340662136281622
 51
67.7661517784284513
 73
1
 72
2
 10
0.4351762525370526
 20
0.1921158009752525
 40
0.0632900956996233
 50
68.470950981743286
 51
90.6585699417950934
 73
1
 72
2
 10
0.4336318197294993
 20
0.1897277761704611
 40
0.0656790210852213
 50
89.2872815216840792
 51
111.1314823724693071
 73
1
 72
2
 10
0.4314760513707024
 20
0.1972629050262518
 40
0.0578777150219766
 50
111.8300840650518069
 51
135.6014548955257908
 73
1
 72
2
 10
0.4302909760783769
 20
0.1981182812851996
 40
0.056432951123624
 50
135.3801475702115624
 51
160.808861890420701
 73
1
 72
2
 10
0.4555896671941709
 20
0.1900623238498313
 40
0.0829769027345145
 50
161.2976987589930786
 51
180.9432775797839668
 73
1
 72
1
 10
0.3726240092451267
 20
0.1886963119555656
 11
0.3726240092451267
 21
0.0039284209181361
 72
1
 10
0.3726240092451267
 20
0.0039284209181361
 11
0.3102208174328626
 21
0.0039284209181361
 72
1
 10
0.3102208174328626
 20
0.0039284209181361
 11
0.3102208174328626
 21
0.0039284209181361
 97
0
 92
1
 93
17
 72
2
 10
1.262141894571901
 20
0.1598466120837502
 40
0.0955599498041531
 50
89.4229760320354785
 51
101.4217355449471967
 73
1
 72
2
 10
1.253752925364594
 20
0.2008073502481446
 40
0.0537492477445614
 50
101.3029711884494048
 51
118.9236420286120079
 73
1
 72
2
 10
1.2457872359027611
 20
0.2155916705385041
 40
0.0369569243893444
 50
119.1999945528866647
 51
164.9234361520867935
 73
1
 72
2
 10
1.4350135761669389
 20
0.1615561705605489
 40
0.2337437672907404
 50
164.1988436857855334
 51
180.5209368016531926
 73
1
 72
2
 10
1.438853616413555
 20
0.1568491631719076
 40
0.2375881748181977
 50
179.3773658294850009
 51
195.6758845874333872
 73
1
 72
2
 10
1.2457870181525439
 20
0.1022669128731847
 40
0.036956738015205
 50
195.0767890957672819
 51
240.8002306949674107
 73
1
 72
2
 10
1.253752925364594
 20
0.1170513249734476
 40
0.0537492477445607
 50
241.0763579713878073
 51
258.6970288115505809
 73
1
 72
2
 10
1.262140584166112
 20
0.1580122008526939
 40
0.0955598253021106
 50
258.579050940135005
 51
270.5778104530472774
 73
1
 72
2
 10
1.264037750038441
 20
0.15160896461126
 40
0.0891566168990799
 50
269.4000888929036819
 51
282.0620916348420906
 73
1
 72
2
 10
1.272017057918758
 20
0.1146411433384367
 40
0.0513375923047625
 50
281.9751349689843778
 51
300.288499772927878
 73
1
 72
2
 10
1.2781220905194191
 20
0.103256912758973
 40
0.0384311202842767
 50
300.9892403093049893
 51
345.8672431850687872
 73
1
 72
2
 10
1.0828723278900501
 20
0.1585386192215133
 40
0.2413422535639793
 50
344.4582368117016813
 51
0.2118527486712062
 73
1
 72
2
 10
1.086580022556491
 20
0.1598326922086925
 40
0.2376332486484047
 50
359.9031447478188852
 51
15.6621672842725683
 73
1
 72
2
 10
1.2781218682015509
 20
0.2146016706527158
 40
0.0384313134562483
 50
14.1325431531234305
 51
59.0105460288871626
 73
1
 72
2
 10
1.272017057918758
 20
0.2032175318831563
 40
0.0513375923047623
 50
59.7115002270721291
 51
78.0248650310157075
 73
1
 72
2
 10
1.2640365087907559
 20
0.1662498483251882
 40
0.0891567416188953
 50
77.9371098055732574
 51
90.5991125475115382
 73
1
 72
1
 10
1.2631042595103159
 20
0.255401715873645
 11
1.2631042595103159
 21
0.255401715873645
 97
0
 92
1
 93
10
 72
1
 10
0.6671942938610581
 20
0.6806651197111324
 11
0.7981666306444976
 21
0.6806651197111324
 72
2
 10
0.696862044860314
 20
0.6781105976794088
 40
0.1013367884024137
 50
1.444478743205071
 51
19.2748662813333809
 73
1
 72
2
 10
0.7334236719479486
 20
0.6905997291489129
 40
0.0627025506624145
 50
19.5306700709219001
 51
44.1129080090089971
 73
1
 72
2
 10
0.7347403028640507
 20
0.6918779554172002
 40
0.0608675090438734
 50
44.1117274216026871
 51
67.6612494844384145
 73
1
 72
2
 10
0.7335239281059245
 20
0.6867303477716993
 40
0.0660963548609396
 50
68.3819892250851353
 51
90.6690987606778549
 73
1
 72
2
 10
0.7319358511233431
 20
0.685180200591584
 40
0.0676469195649916
 50
89.3086564792454141
 51
111.3668410152048978
 73
1
 72
2
 10
0.7301801653571299
 20
0.6917331711268554
 40
0.0609093409710145
 50
112.0747000646344844
 51
135.7365357356170819
 73
1
 72
2
 10
0.7306000978203625
 20
0.6913436749512409
 40
0.061481924444888
 50
135.7497339979031779
 51
160.8011077238620601
 73
1
 72
2
 10
0.7663302840316782
 20
0.6794308295453971
 40
0.0991436736222868
 50
161.0897898683346909
 51
179.2866771873198957
 73
1
 72
1
 10
0.6671942938610581
 20
0.6806651197111324
 11
0.6671942938610581
 21
0.6806651197111324
 97
0
 92
1
 93
21
 72
2
 10
-0.2181440888434606
 20
0.6547651666290933
 40
0.4089465166305609
 50
359.6894077282162243
 51
3.731961422476656
 73
1
 72
2
 10
0.074715033240607
 20
0.6751266921095128
 40
0.1153899427258349
 50
3.108070652657239
 51
12.5371696519488207
 73
1
 72
2
 10
0.107893636853823
 20
0.6799614225022595
 40
0.0819905788476578
 50
14.2723885749153698
 51
34.5215833486893899
 73
1
 72
2
 10
0.133650069507405
 20
0.6968932183164012
 40
0.051178075436972
 50
35.2451333215525224
 51
65.6910340727696394
 73
1
 72
2
 10
0.1268537812124636
 20
0.678535339713778
 40
0.0707192075294746
 50
66.7957333441220555
 51
91.3086808634075169
 73
1
 72
2
 10
0.1235295394517001
 20
0.677966276394936
 40
0.0712903142353783
 50
88.6262709032813802
 51
113.1140326843398043
 73
1
 72
2
 10
0.115914952110123
 20
0.6982519877316611
 40
0.0496531128677078
 50
114.2219560556617068
 51
145.4285215185109053
 73
1
 72
2
 10
0.1342200615055321
 20
0.6833660884355506
 40
0.0731965517449448
 50
143.9642832013443865
 51
166.7242991599017898
 73
1
 72
2
 10
0.1849645754223955
 20
0.675205799230888
 40
0.1245141926609378
 50
168.4320021337011042
 51
177.0738459154428028
 73
1
 72
2
 10
0.4905768703395472
 20
0.6554193852718165
 40
0.4307581735340427
 50
176.5205804781068082
 51
180.2865096827584637
 73
1
 72
2
 10
0.5137005589068965
 20
0.6510196530927692
 40
0.4538820321992573
 50
179.7165106185846923
 51
183.3899648006736811
 73
1
 72
2
 10
0.1882066407120146
 20
0.6304658361900132
 40
0.1277486064267381
 50
182.8199527158272417
 51
191.4027784019280602
 73
1
 72
2
 10
0.1316054911117001
 20
0.621047068186747
 40
0.0704297446153481
 50
192.9954155577754591
 51
216.5540989854482916
 73
1
 72
2
 10
0.1159142946033153
 20
0.60727545750342
 40
0.0496526756590277
 50
214.5720834735001858
 51
245.778648936349299
 73
1
 72
2
 10
0.123529327917357
 20
0.6275613983649052
 40
0.0712902734152186
 50
246.8861381607976284
 51
271.3738999418561093
 73
1
 72
2
 10
0.1268539925227025
 20
0.6269923350460633
 40
0.0707191664628883
 50
268.6911471309376793
 51
293.2040946502231122
 73
1
 72
2
 10
0.1336507442722149
 20
0.6086342269186799
 40
0.0511776303283056
 50
294.3083620982296793
 51
324.7542628494467181
 73
1
 72
2
 10
0.1109830849069223
 20
0.6243743920034418
 40
0.0787736857712336
 50
324.9189376658644051
 51
345.8109140888975048
 73
1
 72
2
 10
0.0748488948634424
 20
0.6301064490710022
 40
0.1152578087481683
 50
347.4516635831586768
 51
356.8743570879690878
 73
1
 72
2
 10
-0.2153199326653452
 20
0.6503470219781557
 40
0.4061223178407044
 50
356.255172354835679
 51
0.3105632177164926
 73
1
 72
1
 10
0.1907964192121909
 20
0.6525483365825375
 11
0.1907964192121909
 21
0.6525483365825375
 97
0
 92
1
 93
21
 72
2
 10
1.4238422090723239
 20
0.6547391526882844
 40
0.4089472945266208
 50
359.6930530690495971
 51
3.7356067633100718
 73
1
 72
2
 10
1.7167013311563919
 20
0.6751378245466645
 40
0.1153884229131369
 50
3.1025757226259798
 51
12.5316747219175504
 73
1
 72
2
 10
1.7498803938191281
 20
0.6799588518056893
 40
0.0819916575219248
 50
14.2740504478725807
 51
34.523245221646647
 73
1
 72
2
 10
1.775635449324148
 20
0.6968898444923498
 40
0.0511807722404843
 50
35.2476247856078828
 51
65.69352553682495
 73
1
 72
2
 10
1.7688377838806451
 20
0.6785332266113898
 40
0.0707213305660166
 50
66.7960660528424057
 51
91.3090135721278813
 73
1
 72
2
 10
1.765514919268443
 20
0.6779747377686579
 40
0.0712818112916215
 50
88.6275833508668427
 51
113.1153451319252952
 73
1
 72
2
 10
1.7579040043230301
 20
0.6982585627997402
 40
0.0496478701832788
 50
114.2270016639989052
 51
145.4335671268479757
 73
1
 72
2
 10
1.7762086546689191
 20
0.6833546847411189
 40
0.0732014051286319
 50
143.95600844668229
 51
166.7160244052397218
 73
1
 72
2
 10
1.8269499552391391
 20
0.6751936482501493
 40
0.1245157304429921
 50
168.4264397292872104
 51
177.0682835110289091
 73
1
 72
2
 10
2.132560873007729
 20
0.6554054221147388
 40
0.4307585629812054
 50
176.5187229375790139
 51
180.2846521422306694
 73
1
 72
2
 10
2.1556845615750779
 20
0.6510339680065245
 40
0.45388242064159
 50
179.7183179241793027
 51
183.3917721062682631
 73
1
 72
2
 10
1.8301920205287581
 20
0.6304780710411115
 40
0.1277501259193755
 50
182.825413129306213
 51
191.4082388154070884
 73
1
 72
2
 10
1.773594084275087
 20
0.6210580747408861
 40
0.0704344568948489
 50
193.0037198009301846
 51
216.5624032286029887
 73
1
 72
2
 10
1.757903346816222
 20
0.6072688824353408
 40
0.0496474329284303
 50
214.5670378846141091
 51
245.7736033474631938
 73
1
 72
2
 10
1.7655147077341
 20
0.6275529369911832
 40
0.0712817704665925
 50
246.8848257328399995
 51
271.3725875138985657
 73
1
 72
2
 10
1.7688379951908839
 20
0.6269944481484516
 40
0.0707212895006632
 50
268.6908144271877177
 51
293.2037619464732074
 73
1
 72
2
 10
1.775636124088958
 20
0.6086376007427312
 40
0.0511803271552717
 50
294.3058706443242158
 51
324.7517713955411978
 73
1
 72
2
 10
1.752969841872227
 20
0.6243768819100816
 40
0.0787747411823926
 50
324.9172637571633118
 51
345.8092401801964115
 73
1
 72
2
 10
1.7168351927792269
 20
0.6300953090318256
 40
0.1152562851283684
 50
347.4571683543728113
 51
356.8798618591832792
 73
1
 72
2
 10
1.4266663652504401
 20
0.6503729535044631
 40
0.4061230961971551
 50
356.2515132910468196
 51
0.3069041539275526
 73
1
 72
1
 10
1.8327836352270159
 20
0.6525483365825375
 11
1.8327836352270159
 21
0.6525483365825375
 97
0
 92
1
 93
16
 72
1
 10
0.7929008671516788
 20
0.1118055172773673
 11
0.7929008671516788
 21
0.1346138517512834
 72
1
 10
0.7929008671516788
 20
0.1346138517512834
 11
0.7201690611289098
 21
0.1346138517512834
 72
2
 10
0.7219065571905552
 20
0.0279284190008197
 40
0.1066995803821081
 50
90.9330457632964908
 51
103.5364840444637053
 73
1
 72
2
 10
0.7080833960877679
 20
0.0840096743039996
 40
0.0489416889635312
 50
103.1705947904933112
 51
124.3988962921269064
 73
1
 72
2
 10
0.697285330335399
 20
0.1003018173333537
 40
0.0293997405302763
 50
124.9728761993900008
 51
154.842637483569888
 73
1
 72
2
 10
0.7033361364727468
 20
0.0983774508925872
 40
0.0357043067102912
 50
156.1753335091418933
 51
182.3934178105231183
 73
1
 72
2
 10
0.6993385622349103
 20
0.0966875645055046
 40
0.0316762093700302
 50
179.6403307032630892
 51
206.8172350465461022
 73
1
 72
2
 10
0.706573989689937
 20
0.1010626309524633
 40
0.0401123721750556
 50
207.7318587513189243
 51
230.9380176914501988
 73
1
 72
2
 10
0.7089482621171338
 20
0.101472089535276
 40
0.0419564441871544
 50
228.7723218252612867
 51
255.9449805052605882
 73
1
 72
2
 10
0.7229669073045413
 20
0.1548384148781497
 40
0.0971317180305895
 50
255.5681831452324388
 51
271.0575027126195096
 73
1
 72
2
 10
0.7298940066949454
 20
0.2358424389013917
 40
0.178193185478434
 50
268.3488534792310816
 51
278.8431999977431133
 73
1
 72
2
 10
0.7492555909749499
 20
0.1179183226160471
 40
0.0587029553153597
 50
277.8643438966489043
 51
299.9368060698087106
 73
1
 72
2
 10
0.7651859445268454
 20
0.0863313298487231
 40
0.0234623394841266
 50
304.7249698370485476
 51
326.855269623815218
 73
1
 72
2
 10
0.7528748281545079
 20
0.0942488470324509
 40
0.0380994249291453
 50
327.0085111754543732
 51
343.0082856974249239
 73
1
 72
2
 10
0.6970743220846096
 20
0.1092254612424071
 40
0.0958612717870704
 50
344.194155865732796
 51
1.5422722030545826
 73
1
 72
1
 10
0.7929008671516788
 20
0.1118055172773673
 11
0.7929008671516788
 21
0.1118055172773673
 97
0
 92
1
 93
16
 72
1
 10
2.0574595021035811
 20
0.1118055172773673
 11
2.0574595021035811
 21
0.1346138517512834
 72
1
 10
2.0574595021035811
 20
0.1346138517512834
 11
1.984727696080812
 21
0.1346138517512834
 72
2
 10
1.986465192142459
 20
0.0279284190008093
 40
0.1066995803821185
 50
90.9330457632971161
 51
103.5364840444629948
 73
1
 72
2
 10
1.9726420310396711
 20
0.0840096743040007
 40
0.0489416889635303
 50
103.1705947904938796
 51
124.398896292127489
 73
1
 72
2
 10
1.9618439652873021
 20
0.100301817333352
 40
0.0293997405302774
 50
124.9728761993874002
 51
154.84263748356733
 73
1
 72
2
 10
1.9678947714246691
 20
0.0983774508925875
 40
0.0357043067103091
 50
156.1753335091551094
 51
182.3934178105223225
 73
1
 72
2
 10
1.963897197186812
 20
0.096687564505499
 40
0.0316762093700284
 50
179.6403307032529426
 51
206.8172350465364104
 73
1
 72
2
 10
1.971132624641839
 20
0.1010626309524687
 40
0.0401123721750591
 50
207.7318587513249781
 51
230.9380176914563094
 73
1
 72
2
 10
1.973506897069037
 20
0.1014720895352741
 40
0.0419564441871527
 50
228.772321825260093
 51
255.9449805052595082
 73
1
 72
2
 10
1.9875255422564431
 20
0.1548384148781446
 40
0.0971317180305844
 50
255.5681831452319841
 51
271.0575027126192253
 73
1
 72
2
 10
1.994452641646848
 20
0.2358424389014066
 40
0.1781931854784489
 50
268.3488534792306837
 51
278.8431999977427154
 73
1
 72
2
 10
2.0138142259268541
 20
0.1179183226160443
 40
0.0587029553153571
 50
277.8643438966494728
 51
299.9368060698094496
 73
1
 72
2
 10
2.0297445794787632
 20
0.0863313298487092
 40
0.0234623394841071
 50
304.7249698370392252
 51
326.8552696238244266
 73
1
 72
2
 10
2.017433463106411
 20
0.0942488470324493
 40
0.0380994249291447
 50
327.0085111754565332
 51
343.0082856974270271
 73
1
 72
2
 10
1.961632957036511
 20
0.1092254612424042
 40
0.0958612717870706
 50
344.194155865734615
 51
1.5422722030562619
 73
1
 72
1
 10
2.0574595021035811
 20
0.1118055172773673
 11
2.0574595021035811
 21
0.1118055172773673
 97
0
 92
1
 93
10
 72
1
 10
2.4667893625434938
 20
0.1868307347043883
 11
2.5977561907326869
 21
0.1868307347043883
 72
2
 10
2.4964525230475449
 20
0.184282065376026
 40
0.1013357232263486
 50
1.4411837294170138
 51
19.2715712675453936
 73
1
 72
2
 10
2.5330159863332611
 20
0.1967695580626087
 40
0.0627002767337789
 50
19.5273214062348188
 51
44.1095593443219869
 73
1
 72
2
 10
2.5343298629522399
 20
0.1980259528760233
 40
0.060882409458523
 50
44.1212257390375484
 51
67.670747801873361
 73
1
 72
2
 10
2.5331116519960322
 20
0.1929052844308591
 40
0.0660870124106305
 50
68.3804917712007523
 51
90.6676013067935145
 73
1
 72
2
 10
2.5315272474096151
 20
0.1913552364637052
 40
0.0676374772384249
 50
89.3101155200072725
 51
111.3683000559667846
 73
1
 72
2
 10
2.529772479742443
 20
0.1978944032442957
 40
0.0609130575744007
 50
112.0723504550935985
 51
135.7341861260761959
 73
1
 72
2
 10
2.5301933303047162
 20
0.1975175549617244
 40
0.0614774728553312
 50
135.7564456605425676
 51
160.8078193865015919
 73
1
 72
2
 10
2.5659253527141139
 20
0.1855964445386547
 40
0.0991436736222868
 50
161.0897898683357141
 51
179.2866771873207767
 73
1
 72
1
 10
2.4667893625434938
 20
0.1868307347043883
 11
2.4667893625434938
 21
0.1868307347043883
 97
0
 92
1
 93
17
 72
2
 10
0.4348340921109781
 20
0.651243095664975
 40
0.0949563011923261
 50
269.4223826050890125
 51
281.457204276467678
 73
1
 72
2
 10
0.4431732270336307
 20
0.6106506264586977
 40
0.05351636489567
 50
281.3396068142312743
 51
298.9927419259624912
 73
1
 72
2
 10
0.4510189788845226
 20
0.5961062787317206
 40
0.0369923450837643
 50
299.2825296547970879
 51
344.9300778543537831
 73
1
 72
2
 10
0.2607384301189521
 20
0.6502887949995287
 40
0.2348335838788593
 50
344.2355232211297107
 51
0.5513018704624957
 73
1
 72
2
 10
0.258463377345951
 20
0.6547130905555653
 40
0.2371076480068208
 50
359.476891654369922
 51
15.6873355428649734
 73
1
 72
2
 10
0.4507766915227555
 20
0.7092470169512061
 40
0.0372158151322957
 50
14.912182473612372
 51
60.4824682665536386
 73
1
 72
2
 10
0.4431427010029855
 20
0.6951119842310225
 40
0.0532783479971383
 50
60.827729684419559
 51
78.575568360423631
 73
1
 72
2
 10
0.4348304079779139
 20
0.6549337049118298
 40
0.0943072171670815
 50
78.4605758327843432
 51
90.5793546845154935
 73
1
 72
2
 10
0.4329261906815648
 20
0.6585271343367969
 40
0.090713947732053
 50
89.3995607543915156
 51
101.9588512401934963
 73
1
 72
2
 10
0.4247720472706538
 20
0.6966150932853448
 40
0.0517630811100132
 50
101.8647684898460994
 51
120.1358082567784891
 73
1
 72
2
 10
0.4182693838992074
 20
0.7086561320112532
 40
0.0380871966385938
 50
120.7698524126226829
 51
166.0784190949210029
 73
1
 72
2
 10
0.6166181018749737
 20
0.6533181184018824
 40
0.2439971431157608
 50
164.6714459765350966
 51
180.1807616351434831
 73
1
 72
2
 10
0.6145032108446733
 20
0.6517807014982672
 40
0.2418822558801706
 50
179.8181663875909635
 51
195.3958282100161057
 73
1
 72
2
 10
0.4181014260807229
 20
0.5967524671001548
 40
0.0379301360479918
 50
194.0186330930347083
 51
239.3840415924798037
 73
1
 72
2
 10
0.4247510314139397
 20
0.609053791972482
 40
0.0519060091321804
 50
239.982531924563034
 51
258.1920759993952856
 73
1
 72
2
 10
0.4329241954902669
 20
0.647401478009254
 40
0.0911148383351835
 50
258.0958203655762304
 51
270.599052018987777
 73
1
 72
1
 10
0.4338768229591011
 20
0.5562916197844041
 11
0.4338768229591011
 21
0.5562916197844041
 97
0
 92
1
 93
10
 72
1
 10
2.8064393281198212
 20
0.6806651197111324
 11
2.9374061563090148
 21
0.6806651197111324
 72
2
 10
2.8361024886238719
 20
0.67811645038277
 40
0.1013357232263491
 50
1.44118372941706
 51
19.2715712675453403
 73
1
 72
2
 10
2.8726659519095881
 20
0.6906039430693518
 40
0.0627002767337794
 50
19.5273214062356288
 51
44.1095593443227969
 73
1
 72
2
 10
2.8739798285285678
 20
0.6918603378827696
 40
0.0608824094585212
 50
44.1212257390363476
 51
67.6707478018721531
 73
1
 72
2
 10
2.87276161757236
 20
0.6867396694376008
 40
0.0660870124106329
 50
68.380491771201136
 51
90.6676013067938271
 73
1
 72
2
 10
2.8711772129859421
 20
0.6851896214704494
 40
0.0676374772384249
 50
89.3101155200072725
 51
111.3683000559667846
 73
1
 72
2
 10
2.86942244531877
 20
0.691728788251042
 40
0.0609130575743989
 50
112.0723504550947922
 51
135.7341861260773896
 73
1
 72
2
 10
2.869843295881044
 20
0.6913519399684676
 40
0.0614774728553318
 50
135.7564456605418002
 51
160.8078193865007393
 73
1
 72
2
 10
2.90557531829044
 20
0.6794308295453976
 40
0.099143673622286
 50
161.089789868334833
 51
179.2866771873200946
 73
1
 72
1
 10
2.8064393281198212
 20
0.6806651197111324
 11
2.8064393281198212
 21
0.6806651197111324
 97
0
 75
0
 76
1
 98
0
  0
HATCH
  5
48
  8
COLOR
 62
256
370
-1
  6
ByLayer
100
AcDbEntity
100
AcDbHatch
 10
0.0
 20
0.0
 30
0.0
210
0.0
220
0.0
230
1.0
  2
SOLID
 70
1
 71
0
 91
1
 92
1
 93
64
 72
2
 10
1.4960645613623089
 20
1.99026565838394
 40
0.3282489395927108
 50
294.7150320400102146
 51
245.2849679599898707
 73
1
 72
2
 10
1.352550321251166
 20
1.6784588312988979
 40
0.0149999999999998
 50
294.715032040010783
 51
22.2104053024059596
 73
0
 72
1
 10
1.3664373505175329
 20
1.67278869742437
 11
1.1696481036445789
 21
1.1908215885157261
 72
2
 10
1.1557610743782121
 20
1.1964917223902529
 40
0.0149999999999999
 50
22.2104053024049399
 51
112.4999999999996163
 73
0
 72
1
 10
1.150020822892736
 20
1.182633529402584
 11
1.0431312174214451
 21
1.2269086536655021
 72
2
 10
1.0373909659359679
 20
1.213050460677833
 40
0.0150000000000001
 50
67.4999999999997442
 51
124.0803113827821988
 73
1
 72
1
 10
1.0289856497243901
 20
1.2254742547594879
 11
0.7939091314208768
 21
1.066433267982718
 72
2
 10
0.7855038152092986
 20
1.0788570620643729
 40
0.0150000000000001
 50
55.9196886172179077
 51
135.0000000000005116
 73
0
 72
1
 10
0.7748972134915002
 20
1.068250460346575
 11
0.5740493633249444
 21
1.269098310513131
 72
2
 10
0.5846559650427425
 20
1.2797049122309301
 40
0.015
 50
134.9999999999993747
 51
214.0803113827814741
 73
0
 72
1
 10
0.5722321709610868
 20
1.2881102284425081
 11
0.7312731577378568
 21
1.5231867467460209
 72
2
 10
0.7188493636562014
 20
1.531592062957599
 40
0.0149999999999999
 50
325.9196886172172754
 51
22.4999999999996696
 73
1
 72
1
 10
0.7327075566438707
 20
1.5373323144430751
 11
0.6360174079335656
 21
1.770762982807365
 72
2
 10
0.6221592149458963
 20
1.7650227313218889
 40
0.015
 50
22.50000000000027
 51
79.0803113827827104
 73
1
 72
1
 10
0.625000707897876
 20
1.779751136456317
 11
0.346317547471284
 21
1.83351637641
 72
2
 10
0.3491590404232637
 20
1.8482447815444289
 40
0.0150000000000001
 50
100.9196886172178012
 51
180.000000000000199
 73
0
 72
1
 10
0.3341590404232636
 20
1.8482447815444289
 11
0.3341590404232637
 21
2.132286535223451
 72
2
 10
0.3491590404232637
 20
2.132286535223451
 40
0.015
 50
180.0000000000001137
 51
259.080311382782611
 73
0
 72
1
 10
0.346317547471284
 20
2.14701494035788
 11
0.6250007078978759
 21
2.200780180311563
 72
2
 10
0.6221592149458962
 20
2.2155085854459911
 40
0.015
 50
280.9196886172176164
 51
337.4999999999998863
 73
1
 72
1
 10
0.6360174079335654
 20
2.2097683339605152
 11
0.7327075566438709
 21
2.4431990023248051
 72
2
 10
0.7188493636562014
 20
2.448939253810281
 40
0.0150000000000001
 50
337.4999999999997158
 51
34.0803113827821988
 73
1
 72
1
 10
0.7312731577378572
 20
2.4573445700218599
 11
0.5722321709610867
 21
2.6924210883253732
 72
2
 10
0.5846559650427425
 20
2.7008264045369512
 40
0.0150000000000003
 50
145.9196886172177869
 51
225.0000000000003979
 73
0
 72
1
 10
0.5740493633249442
 20
2.71143300625475
 11
0.7748972134915004
 21
2.912280856421305
 72
2
 10
0.7855038152092986
 20
2.901674254703507
 40
0.0150000000000001
 50
225.0000000000007105
 51
304.0803113827822131
 73
0
 72
1
 10
0.7939091314208768
 20
2.9140980487851631
 11
1.0289856497243901
 21
2.755057062008393
 72
2
 10
1.0373909659359679
 20
2.767480856090049
 40
0.0149999999999999
 50
235.9196886172177301
 51
292.5000000000002274
 73
1
 72
1
 10
1.043131217421444
 20
2.7536226631023788
 11
1.2765618857857339
 21
2.8503128118126839
 72
2
 10
1.2708216343002581
 20
2.8641710048003528
 40
0.0149999999999996
 50
292.49999999999892
 51
349.0803113827813036
 73
1
 72
1
 10
1.2855500394346859
 20
2.861329511848373
 11
1.3393152793883689
 21
3.1400126722749659
 72
2
 10
1.354043684522797
 20
3.1371711793229862
 40
0.0150000000000002
 50
190.919688617217929
 51
270.0
 73
0
 72
1
 10
1.354043684522797
 20
3.1521711793229859
 11
1.63808543820182
 21
3.1521711793229859
 72
2
 10
1.63808543820182
 20
3.1371711793229862
 40
0.015
 50
270.0000000000003979
 51
349.080311382782611
 73
0
 72
1
 10
1.652813843336248
 20
3.1400126722749659
 11
1.7065790832899319
 21
2.8613295118483739
 72
2
 10
1.72130748842436
 20
2.8641710048003541
 40
0.0150000000000004
 50
190.9196886172171048
 51
247.4999999999996021
 73
1
 72
1
 10
1.7155672369388839
 20
2.8503128118126839
 11
1.948997905303173
 21
2.7536226631023788
 72
2
 10
1.9547381567886499
 20
2.767480856090049
 40
0.0150000000000001
 50
247.4999999999996874
 51
304.0803113827822699
 73
1
 72
1
 10
1.963143473000228
 20
2.755057062008393
 11
2.1982199913037408
 21
2.914098048785164
 72
2
 10
2.2066253075153202
 20
2.901674254703507
 40
0.0150000000000004
 50
235.9196886172177301
 51
314.9999999999992042
 73
0
 72
1
 10
2.2172319092331181
 20
2.9122808564213059
 11
2.4180797593996739
 21
2.71143300625475
 72
2
 10
2.407473157681876
 20
2.7008264045369521
 40
0.0150000000000002
 50
315.0000000000001137
 51
34.0803113827830089
 73
0
 72
1
 10
2.419896951763532
 20
2.6924210883253732
 11
2.260855964986761
 21
2.4573445700218599
 72
2
 10
2.2732797590684171
 20
2.4489392538102819
 40
0.0149999999999997
 50
145.9196886172177017
 51
202.5
 73
1
 72
1
 10
2.2594215660807482
 20
2.443199002324806
 11
2.3561117147910529
 21
2.2097683339605152
 72
2
 10
2.3699699077787222
 20
2.2155085854459911
 40
0.015
 50
202.5
 51
259.0803113827823836
 73
1
 72
1
 10
2.367128414826742
 20
2.200780180311563
 11
2.645811575253334
 21
2.14701494035788
 72
2
 10
2.6429700823013542
 20
2.1322865352234519
 40
0.015
 50
280.919688617217389
 51
359.9999999999996021
 73
0
 72
1
 10
2.6579700823013539
 20
2.1322865352234519
 11
2.6579700823013539
 21
1.8482447815444289
 72
2
 10
2.6429700823013542
 20
1.8482447815444289
 40
0.015
 50
0.0000000000004071
 51
79.0803113827825541
 73
0
 72
1
 10
2.645811575253334
 20
1.8335163764100011
 11
2.367128414826742
 21
1.779751136456317
 72
2
 10
2.3699699077787222
 20
1.7650227313218889
 40
0.0150000000000001
 50
100.9196886172182985
 51
157.5000000000007105
 73
1
 72
1
 10
2.356111714791052
 20
1.770762982807365
 11
2.2594215660807468
 21
1.5373323144430759
 72
2
 10
2.2732797590684171
 20
1.531592062957599
 40
0.0149999999999999
 50
157.4999999999998863
 51
214.0803113827822131
 73
1
 72
1
 10
2.260855964986761
 20
1.5231867467460209
 11
2.419896951763532
 21
1.2881102284425081
 72
2
 10
2.407473157681876
 20
1.2797049122309301
 40
0.0150000000000001
 50
325.9196886172177869
 51
44.9999999999992824
 73
0
 72
1
 10
2.4180797593996739
 20
1.2690983105131319
 11
2.2172319092331181
 21
1.0682504603465759
 72
2
 10
2.2066253075153202
 20
1.078857062064374
 40
0.015
 50
44.9999999999997442
 51
124.0803113827817867
 73
0
 72
1
 10
2.1982199913037421
 20
1.066433267982718
 11
1.9631434730002291
 21
1.2254742547594879
 72
2
 10
1.954738156788651
 20
1.213050460677833
 40
0.0149999999999999
 50
55.9196886172177301
 51
112.500000000000199
 73
1
 72
1
 10
1.9489979053031741
 20
1.2269086536655021
 11
1.842108299831883
 21
1.1826335294025829
 72
2
 10
1.836368048346406
 20
1.1964917223902529
 40
0.015
 50
67.5000000000002274
 51
157.7895946975949073
 73
0
 72
1
 10
1.8224810190800389
 20
1.1908215885157249
 11
1.6256917722070849
 21
1.67278869742437
 72
2
 10
1.639578801473452
 20
1.6784588312988979
 40
0.015
 50
157.7895946975943104
 51
245.2849679599895865
 73
0
 97
0
 75
0
 76
1
 98
0
  0
LWPOLYLINE
  5
49
  8
GEAR
 62
256
370
-1
  6
ByLayer
100
AcDbEntity
100
AcDbPolyline
 90
64
 70
1
 10
1.6333072202583099
 20
1.6920848090275558
 42
4.5643956040212732
 10
1.3588219024663091
 20
1.692084809027556
 42
-0.4014672249529551
 10
1.3664373505175329
 20
1.67278869742437
 10
1.1696481036445789
 20
1.1908215885157261
 42
-0.4156947323144386
 10
1.150020822892736
 20
1.1826335294025843
 10
1.0431312174214451
 20
1.2269086536655021
 42
0.2520191994259653
 10
1.0289856497243901
 20
1.2254742547594879
 10
0.7939091314208768
 20
1.066433267982718
 42
-0.3594323331783942
 10
0.7748972134915002
 20
1.068250460346575
 10
0.5740493633249444
 20
1.269098310513131
 42
-0.359432333178391
 10
0.5722321709610867
 20
1.2881102284425081
 10
0.7312731577378568
 20
1.5231867467460209
 42
0.2520191994259637
 10
0.7327075566438707
 20
1.5373323144430751
 10
0.6360174079335656
 20
1.770762982807365
 42
0.2520191994259653
 10
0.625000707897876
 20
1.779751136456317
 10
0.346317547471284
 20
1.83351637641
 42
-0.3594323331783863
 10
0.3341590404232636
 20
1.8482447815444285
 10
0.3341590404232637
 20
2.132286535223451
 42
-0.3594323331783843
 10
0.346317547471284
 20
2.14701494035788
 10
0.6250007078978759
 20
2.200780180311563
 42
0.2520191994259675
 10
0.6360174079335655
 20
2.2097683339605152
 10
0.7327075566438709
 20
2.4431990023248051
 42
0.2520191994259635
 10
0.7312731577378571
 20
2.4573445700218599
 10
0.5722321709610867
 20
2.6924210883253732
 42
-0.3594323331783923
 10
0.5740493633249442
 20
2.71143300625475
 10
0.7748972134915004
 20
2.912280856421305
 42
-0.3594323331783884
 10
0.7939091314208768
 20
2.9140980487851631
 10
1.0289856497243901
 20
2.755057062008393
 42
0.252019199425963
 10
1.043131217421444
 20
2.7536226631023788
 10
1.2765618857857339
 20
2.8503128118126839
 42
0.2520191994259701
 10
1.2855500394346862
 20
2.861329511848373
 10
1.3393152793883689
 20
3.1400126722749659
 42
-0.3594323331783943
 10
1.354043684522797
 20
3.1521711793229859
 10
1.63808543820182
 20
3.1521711793229859
 42
-0.3594323331783943
 10
1.652813843336248
 20
3.1400126722749659
 10
1.7065790832899319
 20
2.8613295118483739
 42
0.2520191994259647
 10
1.7155672369388839
 20
2.8503128118126839
 10
1.948997905303173
 20
2.7536226631023788
 42
0.2520191994259582
 10
1.9631434730002277
 20
2.755057062008393
 10
2.1982199913037408
 20
2.914098048785164
 42
-0.3594323331783904
 10
2.2172319092331181
 20
2.9122808564213059
 10
2.4180797593996739
 20
2.71143300625475
 42
-0.3594323331783948
 10
2.419896951763532
 20
2.6924210883253732
 10
2.260855964986761
 20
2.4573445700218599
 42
0.2520191994259664
 10
2.2594215660807482
 20
2.443199002324806
 10
2.3561117147910529
 20
2.2097683339605152
 42
0.2520191994259689
 10
2.367128414826742
 20
2.2007801803115625
 10
2.645811575253334
 20
2.14701494035788
 42
-0.359432333178391
 10
2.6579700823013539
 20
2.1322865352234519
 10
2.6579700823013539
 20
1.8482447815444289
 42
-0.3594323331783894
 10
2.645811575253334
 20
1.8335163764100009
 10
2.367128414826742
 20
1.779751136456317
 42
0.2520191994259646
 10
2.356111714791052
 20
1.770762982807365
 10
2.2594215660807468
 20
1.5373323144430759
 42
0.252019199425958
 10
2.260855964986761
 20
1.5231867467460212
 10
2.419896951763532
 20
1.2881102284425081
 42
-0.3594323331783851
 10
2.4180797593996739
 20
1.2690983105131319
 10
2.2172319092331181
 20
1.0682504603465759
 42
-0.3594323331783951
 10
2.1982199913037421
 20
1.0664332679827178
 10
1.9631434730002291
 20
1.2254742547594879
 42
0.2520191994259652
 10
1.9489979053031741
 20
1.2269086536655021
 10
1.842108299831883
 20
1.1826335294025829
 42
-0.4156947323144403
 10
1.8224810190800389
 20
1.1908215885157249
 10
1.6256917722070849
 20
1.67278869742437
 42
-0.4014672249529498
  0
ENDSEC
  0
SECTION
  2
OBJECTS
  0
DICTIONARY
  5
C
100
AcDbDictionary
280
0
281
1
  3
ACAD_GROUP
350
D
  3
ACAD_LAYOUT
350
1A
  3
ACAD_MLINESTYLE
350
17
  3
ACAD_PLOTSETTINGS
350
19
  3
ACAD_PLOTSTYLENAME
350
E
  3
AcDbVariableDictionary
350
4A
  0
DICTIONARY
  5
D
100
AcDbDictionary
280
0
281
1
  0
ACDBDICTIONARYWDFLT
  5
E
100
AcDbDictionary
281
1
  3
Normal
350
F
100
AcDbDictionaryWithDefault
340
F
  0
ACDBPLACEHOLDER
  5
F
  0
DICTIONARY
  5
17
100
AcDbDictionary
280
0
281
1
  3
Standard
350
18
  0
MLINESTYLE
  5
18
100
AcDbMlineStyle
  2
STANDARD
 70
0
  3

 62
256
 51
90.0
 52
90.0
 71
2
 49
0.5
 62
256
  6
BYLAYER
 49
-0.5
 62
256
  6
BYLAYER
  0
DICTIONARY
  5
19
100
AcDbDictionary
280
0
281
1
  0
DICTIONARY
  5
1A
100
AcDbDictionary
281
1
  3
Layout1
350
1E
  3
Layout2
350
26
  3
Model
350
22
  0
LAYOUT
  5
1E
100
AcDbPlotSettings
  1

  2
C:\Program Files\AutoCAD 2002\plotters\DWF ePlot (optimized for plotting).pc3
  4

  6

 40
0.0
 41
0.0
 42
0.0
 43
0.0
 44
0.0
 45
0.0
 46
0.0
 47
0.0
 48
0.0
 49
0.0
140
0.0
141
0.0
142
1.0
143
1.0
 70
688
 72
0
 73
0
 74
5
  7

 75
16
147
1.0
148
0.0
149
0.0
100
AcDbLayout
  1
Layout1
 70
1
 71
1
 10
0.0
 20
0.0
 11
420.0
 21
297.0
 12
0.0
 22
0.0
 32
0.0
 14
100000000000000000000.0
 24
100000000000000000000.0
 34
100000000000000000000.0
 15
-100000000000000000000.0
 25
-100000000000000000000.0
 35
-100000000000000000000.0
146
0.0
 13
0.0
 23
0.0
 33
0.0
 16
1.0
 26
0.0
 36
0.0
 17
0.0
 27
1.0
 37
0.0
 76
0
330
1B
  0
LAYOUT
  5
22
100
AcDbPlotSettings
  1

  2
C:\Program Files\AutoCAD 2002\plotters\DWF ePlot (optimized for plotting).pc3
  4

  6

 40
0.0
 41
0.0
 42
0.0
 43
0.0
 44
0.0
 45
0.0
 46
0.0
 47
0.0
 48
0.0
 49
0.0
140
0.0
141
0.0
142
1.0
143
1.0
 70
1712
 72
0
 73
0
 74
0
  7

 75
0
147
1.0
148
0.0
149
0.0
100
AcDbLayout
  1
Model
 70
1
 71
0
 10
0.0
 20
0.0
 11
12.0
 21
9.0
 12
0.0
 22
0.0
 32
0.0
 14
0.0
 24
0.0
 34
0.0
 15
0.0
 25
0.0
 35
0.0
146
0.0
 13
0.0
 23
0.0
 33
0.0
 16
1.0
 26
0.0
 36
0.0
 17
0.0
 27
1.0
 37
0.0
 76
0
330
1F
  0
LAYOUT
  5
26
100
AcDbPlotSettings
  1

  2
C:\Program Files\AutoCAD 2002\plotters\DWF ePlot (optimized for plotting).pc3
  4

  6

 40
0.0
 41
0.0
 42
0.0
 43
0.0
 44
0.0
 45
0.0
 46
0.0
 47
0.0
 48
0.0
 49
0.0
140
0.0
141
0.0
142
1.0
143
1.0
 70
688
 72
0
 73
0
 74
5
  7

 75
16
147
1.0
148
0.0
149
0.0
100
AcDbLayout
  1
Layout2
 70
1
 71
2
 10
0.0
 20
0.0
 11
12.0
 21
9.0
 12
0.0
 22
0.0
 32
0.0
 14
0.0
 24
0.0
 34
0.0
 15
0.0
 25
0.0
 35
0.0
146
0.0
 13
0.0
 23
0.0
 33
0.0
 16
1.0
 26
0.0
 36
0.0
 17
0.0
 27
1.0
 37
0.0
 76
0
330
23
  0
DICTIONARY
  5
4A
100
AcDbDictionary
281
1
  3
DIMASSOC
350
4C
  3
HIDETEXT
350
4B
  0
DICTIONARYVAR
  5
4B
100
DictionaryVariables
280
0
  1
2
  0
DICTIONARYVAR
  5
4C
100
DictionaryVariables
280
0
  1
1
  0
ENDSEC
  0
EOF
